<?xml version="1.0" encoding="UTF-8" standalone="no"?>
<svg
   xmlns:dc="http://purl.org/dc/elements/1.1/"
   xmlns:cc="http://creativecommons.org/ns#"
   xmlns:rdf="http://www.w3.org/1999/02/22-rdf-syntax-ns#"
   xmlns:svg="http://www.w3.org/2000/svg"
   xmlns="http://www.w3.org/2000/svg"
   viewBox="0 0 205.32744 147.11452"
   height="147.11452mm"
   width="205.32744mm">
  <g transform="translate(-3.9407076,-42.005238)">
    <path
       id="path847"
       d="m 104.67658,188.75243 c -0.44912,-0.17561 -0.97171,-0.42972 -1.16131,-0.56469 -3.556244,-2.53142 -4.000518,-6.59568 -1.09441,-10.01176 0.52559,-0.61783 1.07469,-1.28796 1.22021,-1.48918 0.23217,-0.32103 0.27655,-4.50536 0.3623,-34.15445 0.0734,-25.38768 0.15017,-33.98595 0.30868,-34.58235 0.25508,-0.95982 0.90661,-4.08246 1.03048,-4.93889 0.34344,-2.37458 -4.86368,-13.012642 -8.227431,-16.808496 -0.749076,-0.845301 -0.749076,-0.845301 -2.7119,1.065378 -7.261562,7.068654 -18.823228,12.690217 -30.229144,14.698148 -0.509323,0.0897 -1.382448,0.24351 -1.940277,0.34188 -11.989471,2.1143 -26.854966,0.57586 -32.789503,-3.393398 C 21.128331,93.352578 27.792203,82.276183 43.367246,75.772469 44.923323,75.122695 44.916869,75.115043 41.722004,73.822072 27.98333,68.261993 11.58466,59.136473 6.8756657,54.430808 0.93299647,48.492341 4.1061255,44.526599 15.565173,43.570756 c 2.749656,-0.229359 9.623598,-0.230706 12.534022,-0.0025 1.23876,0.09715 3.284165,0.26 4.545346,0.361889 7.250233,0.585737 16.514068,1.944316 24.782639,3.634473 4.57435,0.935031 6.1685,1.297926 9.613195,2.188367 1.164167,0.300933 2.394479,0.61405 2.734028,0.695817 6.341244,1.527033 15.088851,4.805078 18.961806,7.105677 5.256613,3.122512 8.203085,5.633485 10.029625,8.547209 0.648021,1.033732 0.344869,1.179941 4.821296,-2.325287 1.19614,-0.936632 1.24993,-0.785035 -1.13669,-3.203554 -4.29477,-4.352187 -6.081978,-7.567676 -5.768861,-10.379174 1.279922,-11.492527 20.217431,-10.614438 19.807751,0.91844 -0.10434,2.937219 -1.93526,5.844173 -6.35813,10.094784 -1.85037,1.7783 -2.03747,1.365201 2.01725,4.453819 1.89927,1.446742 1.71589,1.446742 2.6569,0 1.76564,-2.714549 3.98733,-4.565727 9.7378,-8.113855 3.54461,-2.187075 11.35836,-5.113917 18.96181,-7.102637 0.82462,-0.215683 1.73743,-0.46261 2.02847,-0.548727 0.29104,-0.08612 1.56104,-0.396841 2.82222,-0.6905 1.26118,-0.293658 2.76931,-0.646019 3.35139,-0.783024 0.58209,-0.137006 2.48709,-0.529952 4.23334,-0.873215 5.06186,-0.995018 6.01791,-1.172386 8.11389,-1.505313 0.67909,-0.107869 1.67128,-0.27228 2.20486,-0.365357 1.33551,-0.232969 5.52375,-0.799572 7.76111,-1.049957 1.01864,-0.113998 2.40771,-0.277034 3.0868,-0.362303 9.00042,-1.130105 20.15739,-1.132773 25.55263,-0.0061 6.8655,1.433688 8.52114,5.134975 4.31044,9.636235 -3.49086,3.731725 -9.81296,7.617433 -23.60126,14.505845 -2.47386,1.235899 -5.09323,2.515928 -5.82083,2.844507 -0.72761,0.328581 -1.75948,0.793264 -2.29306,1.032629 -0.53358,0.239363 -2.19809,0.93461 -3.69891,1.544993 -2.99402,1.217662 -3.1787,1.368034 -2.18156,1.776252 14.96748,6.127487 22.30168,16.332345 15.934,22.170723 -7.73906,7.095788 -33.56129,7.299448 -49.12367,0.387433 -0.29104,-0.129266 -0.96082,-0.404698 -1.48839,-0.612073 -5.4674,-2.149078 -12.18705,-6.544236 -16.1505,-10.56364 -1.89212,-1.918839 -1.60041,-1.87459 -2.76764,-0.419823 -2.60107,3.241807 -5.08674,7.882102 -6.54319,12.21493 -1.30393,3.879071 -1.25884,3.490641 -0.68265,5.881251 0.28427,1.17945 0.61059,2.66039 0.72516,3.29098 0.11456,0.63059 0.28227,1.47933 0.37268,1.88609 0.0984,0.44253 0.16439,13.97571 0.16439,33.69629 0,32.95674 0,32.95674 0.97848,33.92085 2.65382,2.61485 3.2289,5.28408 1.78473,8.28391 -1.27711,2.6528 -5.09868,4.11118 -7.90131,3.01528 z m 4.02429,-2.50161 c 2.7198,-1.31663 2.9103,-4.27078 0.44537,-6.90654 -0.71412,-0.7636 -1.41148,-1.65903 -1.5497,-1.98983 -0.21444,-0.51323 -0.2513,-5.43903 -0.2513,-33.57839 0,-34.33792 -0.0251,-35.50769 -0.74611,-34.72363 -0.0223,0.0242 -0.0818,15.32378 -0.13229,33.99895 -0.0865,32.0214 -0.10948,33.98732 -0.40322,34.52479 -0.17132,0.31345 -0.76663,1.05614 -1.32292,1.65041 -3.60702,3.85331 -0.58013,9.22217 3.96017,7.02424 z M 55.663291,100.63021 c 3.057231,-0.2518 3.417436,-0.29251 5.644445,-0.637924 3.669109,-0.569083 7.052827,-1.381492 10.671528,-2.562167 6.476959,-2.113241 13.037942,-5.493298 17.584861,-9.059289 1.794097,-1.407047 4.904723,-4.472592 4.904723,-4.833641 0,-0.915829 -7.97871,-6.512773 -8.810363,-6.180336 -8.934274,3.571299 -22.545097,3.453794 -34.803858,-0.300468 -2.569149,-0.786806 -4.092097,-0.400828 -9.605845,2.434523 -12.480884,6.418082 -16.555358,14.047729 -9.568924,17.918267 4.665019,2.584457 14.946755,3.965315 23.983433,3.221035 z m 111.071299,0.0844 c 15.9598,-1.27074 21.82667,-5.734164 16.62071,-12.644773 -2.8236,-3.748158 -8.677,-7.669756 -15.63174,-10.472785 -2.78065,-1.120706 -3.19172,-1.189777 -4.55124,-0.764711 -1.37763,0.430726 -4.42222,1.251174 -5.46805,1.473517 -11.56319,2.458318 -20.9339,2.233184 -29.3805,-0.705875 -1.29784,-0.451594 -1.06837,-0.512751 -3.44865,0.919094 -2.21704,1.333645 -2.90739,1.841814 -4.96217,3.652695 -1.54712,1.36347 -1.54631,1.114396 -0.009,2.76056 9.54748,10.223348 30.01524,17.121138 46.83061,15.782278 z m -59.57441,-3.524335 c 1.8019,-4.960313 4.41904,-9.6266 7.36336,-13.128625 0.66651,-0.792766 0.71916,-1.175632 0.25265,-1.837202 -2.15049,-3.049659 -2.85405,-7.741833 -1.85625,-12.379644 0.0852,-0.396086 -0.0864,-0.5824 -1.52936,-1.659911 -2.09651,-1.565575 -4.29363,-3.322242 -4.36872,-3.492923 -0.14649,-0.332957 -0.69097,-0.03746 -2.28456,1.239871 -0.94248,0.75543 -2.33539,1.843087 -3.09538,2.417015 -1.2958,0.978573 -1.37537,1.076949 -1.2788,1.581003 0.94642,4.939614 0.31604,8.847016 -2.038611,12.636348 -0.393694,0.633571 -0.393694,0.633571 1.094419,2.496813 2.751142,3.444658 4.749962,7.007041 6.945712,12.37897 0.30707,0.751241 0.44733,0.706863 0.79554,-0.251715 z M 96.869276,80.219092 c 2.420167,-4.775967 2.091749,-9.861821 -0.52778,-8.173168 -2.462518,1.587439 -3.851323,2.398238 -5.3548,3.126192 -1.897018,0.918497 -1.89678,0.840577 -0.0064,2.102483 1.67598,1.118799 3.842446,2.820705 4.441957,3.489459 0.551318,0.614994 0.93188,0.471673 1.447049,-0.544966 z m 21.290334,0.05938 c 1.03159,-0.969533 3.55355,-2.86393 4.77803,-3.589063 1.08088,-0.640099 1.08137,-0.639282 -0.99622,-1.678271 -0.99439,-0.49729 -2.87597,-1.583777 -4.18129,-2.414418 -2.88882,-1.838304 -2.74406,-1.924477 -2.73462,1.62787 0.0131,4.944009 1.42117,7.663779 3.1341,6.053882 z M 74.04636,77.355219 c 2.806741,-0.296044 3.18101,-0.352965 5.429432,-0.825749 1.941731,-0.408294 2.723843,-0.677527 2.523354,-0.868637 -0.453656,-0.432435 -4.822317,-1.562543 -8.255993,-2.135704 -1.914322,-0.319547 -10.877079,-0.320633 -13.052778,-0.0016 -1.636161,0.239931 -6.685339,1.206149 -7.129149,1.364246 -0.484538,0.172604 0.102479,0.447725 1.856017,0.869867 6.850879,1.649266 13.07691,2.183189 18.629117,1.597562 z m 74.2211,-0.0065 c 3.00097,-0.283395 5.8853,-0.737497 8.46667,-1.33297 0.92163,-0.212605 1.91382,-0.439976 2.20486,-0.505268 1.06246,-0.23836 0.61114,-0.608619 -1.23472,-1.012949 -8.78178,-1.923609 -18.12154,-1.67221 -25.5323,0.687252 -1.78123,0.567113 -1.63081,0.66472 2.33716,1.516618 3.86247,0.829248 9.18168,1.079514 13.75833,0.647317 z m -59.755343,-3.71515 c 2.85943,-1.266733 8.602564,-4.724471 8.602564,-5.179298 0,-0.462121 -1.360969,-2.401311 -2.508188,-3.573812 -7.2128,-7.371766 -23.947542,-13.110084 -49.791118,-17.0733 -3.44073,-0.52765 -8.543472,-1.132755 -11.906251,-1.411895 -5.692138,-0.472498 -7.02271,-0.534055 -11.512707,-0.532622 -9.101693,0.0029 -14.0517031,1.08751 -14.7601496,3.234125 -0.7291875,2.209459 4.4654016,6.589701 13.8374396,11.668166 4.293059,2.326297 13.975051,7.243425 16.227778,8.241493 0.582084,0.25789 1.596103,0.711945 2.253376,1.00901 0.657274,0.297064 1.23039,0.540117 1.273593,0.540117 0.0432,0 0.521051,0.202404 1.061887,0.449788 0.540837,0.247384 1.713969,0.724949 2.606965,1.061258 0.892993,0.336306 1.782374,0.68472 1.976402,0.774252 1.037087,0.478548 2.596577,0.920976 2.948988,0.83663 0.22132,-0.05297 1.275526,-0.34354 2.342679,-0.645707 7.318787,-2.072333 17.691373,-2.917666 23.283333,-1.897519 0.873125,0.159284 2.024063,0.367652 2.557639,0.463042 2.221336,0.397109 5.14428,1.291528 7.547649,2.309574 1.591938,0.67433 1.860936,0.655756 3.958121,-0.273302 z m 39.433553,0.473336 c 5.9996,-3.01803 17.92798,-4.211299 26.67179,-2.668141 3.23596,0.571101 6.31272,1.282687 8.73125,2.01934 1.25425,0.38203 1.31146,0.372553 4.18561,-0.693457 6.61433,-2.45323 13.96772,-5.943233 25.09495,-11.910354 9.52041,-5.105451 14.88166,-9.667217 13.95841,-11.876894 -1.44285,-3.453199 -15.24688,-4.132793 -34.33133,-1.690181 -5.97618,0.76489 -15.19457,2.375658 -20.02014,3.498207 -0.77611,0.180542 -2.16517,0.503613 -3.08681,0.717935 -5.15923,1.199757 -10.90059,2.893845 -15.43402,4.55408 -1.32558,0.485455 -1.77456,0.664617 -3.52778,1.407768 -5.83387,2.472833 -11.71616,6.803912 -13.59496,10.009835 -0.59686,1.018462 -0.55626,1.094787 1.19051,2.238242 5.66766,3.710097 8.81571,5.071116 10.16252,4.39362 z M 108.8772,59.046178 c 6.42006,-6.264012 7.02051,-11.174002 1.67149,-13.668113 -7.72894,-3.60381 -14.509112,3.321318 -9.62586,9.831655 4.15998,5.546079 5.52661,6.205214 7.95437,3.836458 z"
       style="fill:#F4AA52;stroke-width:0.176389" />
  </g>
</svg>
