<?xml version="1.0" encoding="UTF-8" standalone="no"?>
<svg
   xmlns:dc="http://purl.org/dc/elements/1.1/"
   xmlns:cc="http://creativecommons.org/ns#"
   xmlns:rdf="http://www.w3.org/1999/02/22-rdf-syntax-ns#"
   xmlns:svg="http://www.w3.org/2000/svg"
   xmlns="http://www.w3.org/2000/svg"
   viewBox="0 0 639.63208 475.13875"
   height="475.13876"
   width="639.63208"
   xml:space="preserve"
   id="svg1033"
   version="1.1"><metadata
     id="metadata1039"><rdf:RDF><cc:Work
         rdf:about=""><dc:format>image/svg+xml</dc:format><dc:type
           rdf:resource="http://purl.org/dc/dcmitype/StillImage" /><dc:title></dc:title></cc:Work></rdf:RDF></metadata><defs
     id="defs1037" /><g
     transform="matrix(1.3333333,0,0,-1.3333333,-635.25144,1396.2045)"
     id="g1041"><g
       transform="scale(0.1)"
       id="g1043"><g
         id="g4964"><path
           id="path2383"
           style="fill:#fb973b;fill-opacity:1;fill-rule:nonzero;stroke:none;stroke-width:0.999997"
           d="m 7209.091,8857.0982 c -0.023,26.28 -0.037,52.65 -0.068,79.18 -13.85,-7.12 -29.71,-11.56 -46,-11.75 -16.33,0.201 -32.23,4.66 -46.1,11.8 -0.023,-28.2 -0.053,-56.23 -0.08,-84.14 30.3501,-3.78 61.59,-1.69 92.25,4.91" /><path
           id="path2385"
           style="fill:#f2b33d;fill-opacity:1;fill-rule:nonzero;stroke:none;stroke-width:0.999997"
           d="m 7217.481,7063.6787 c -1.69,121.88 -3.21,298.23 -4.49,516.15 -0.86,217.95 -1.88,477.4295 -3.02,765.5495 -0.27,144.08 -0.54,295.31 -0.82,452.09 -0.023,19.76 -0.037,39.68 -0.06,59.63 -30.66,-6.6 -61.9,-8.69 -92.25,-4.91 -0.01,-18.3 -0.03,-36.59 -0.053,-54.72 -0.2798,-156.78 -0.5603,-308.01 -0.8201,-452.09 -1.1299,-288.12 -2.16,-547.5995 -3.0199,-765.5495 -1.28,-217.92 -2.8001,-394.27 -4.49,-516.15 -0.48,-30.45 -0.9201,-57.51 -1.29,-80.98 -0.2303,-11.97 -0.87,-22.19 1.9599,-31.11 2.6801,-8.94 7.2,-16.38 12.2601,-22.08 10.29,-11.5001 21.92,-16.0301 29.5299,-18.18 7.7801,-1.9601 12.0501,-2.04 12.0501,-2.69 0,0 0,0 0.01,0 -0.01,0.6502 4.25,0.7297 12.04,2.69 7.61,2.1499 19.24,6.6799 29.53,18.18 5.06,5.7 9.58,13.14 12.26,22.08 2.83,8.92 2.19,19.14 1.96,31.11 -0.3698,23.47 -0.8,50.53 -1.29,80.98" /><path
           id="path2387"
           style="fill:#f2b33d;fill-opacity:1;fill-rule:nonzero;stroke:none;stroke-width:0.999997"
           d="m 5911.701,9478.2882 c -73.69,9.19 -146.12,18.89 -217.17,28.96 -153.28,-115.59 -295.26,-247.63 -434.14,-380.9 -74.43,-66.73 -153.86,-122.56 -240.56,-168.76 1.66,-2.02 3.22,-4.1 4.92,-6.1 9.62,-11.14 20.16,-21.66 31.41,-31.62 40.18,24.22 78.68,53.1 115.32,77.14 245.89,156.86 486.5,336.21 740.22,481.28" /><path
           id="path2389"
           style="fill:#f2b33d;fill-opacity:1;fill-rule:nonzero;stroke:none;stroke-width:0.999997"
           d="m 5582.951,9523.4782 c -21.41,3.2 -42.68,6.42 -63.8199,9.67 -14.1801,-33.43 -26.2901,-68.22 -31.2101,-105.72 31.13,33.13 62.8301,65.04 95.03,96.05" /><path
           id="path2391"
           style="fill:#f29544;fill-opacity:1;fill-rule:nonzero;stroke:none;stroke-width:0.999997"
           d="m 5694.531,9507.2482 c -37.57,5.32 -74.79,10.73 -111.58,16.23 -32.1999,-31.01 -63.9,-62.92 -95.03,-96.05 4.92,37.5 17.03,72.29 31.2101,105.72 -1.2,0.18 -2.43,0.36 -3.6401,0.55 -29.8,4.64 -59.28,9.28 -88.58,14.07 -103.65,-216.83 -240.71,-418.13 -437.67,-546 8.62,-15.37 19.06,-30.06 30.59,-44.18 86.7,46.2 166.13,102.03 240.56,168.76 138.88,133.27 280.86,265.31 434.14,380.9" /><path
           id="path2393"
           style="fill:#f29544;fill-opacity:1;fill-rule:nonzero;stroke:none;stroke-width:0.999997"
           d="m 5187.011,8843.2982 c 43.53,-15.97 90.87,-25.95 139.85,-29.06 113.01,38.43 231.34,61.97 342.59,49.1 31.28,8.56 62.84,17.56 94.86,26.71 55.41,15.93 111.82,32.48 169.05,49.69 -244.75,64.14 -513.25,22.26 -746.35,-96.44" /><path
           id="path2395"
           style="fill:#f2b33d;fill-opacity:1;fill-rule:nonzero;stroke:none;stroke-width:0.999997"
           d="m 5326.861,8814.2382 c 7.55,-0.47 15.13,-0.83 22.75,-0.97 65.72,-1.89 133.89,6.66 202.96,21.22 38.54,8.08 77.48,18.08 116.88,28.85 -111.25,12.87 -229.58,-10.67 -342.59,-49.1" /><path
           id="path2397"
           style="fill:#f2b33d;fill-opacity:1;fill-rule:nonzero;stroke:none;stroke-width:0.999997"
           d="m 5111.781,8879.2882 c 23.34,-14.07 48.53,-26.19 75.23,-35.99 233.1,118.7 501.6,160.58 746.35,96.44 109.42,32.91 221.93,68.28 336.6,106.57 -361.19,119.51 -810.47,21.22 -1158.18,-167.02" /><path
           id="path2399"
           style="fill:#f2b33d;fill-opacity:1;fill-rule:nonzero;stroke:none;stroke-width:0.999997"
           d="m 6386.531,9429.1482 c -67.05,5.42 -133.33,11.49 -198.85,18.05 -48,-23.51 -95.9,-47.27 -143.5,-71.67 38.36,26.69 75.75,50.82 113.08,74.77 -40.94,4.22 -81.61,8.61 -121.9,13.21 -173.46,-112.51 -352.3699,-216.2 -541.09,-309.33 297.11,100.12 592.71,195.71 892.26,274.97" /><path
           id="path2401"
           style="fill:#f29544;fill-opacity:1;fill-rule:nonzero;stroke:none;stroke-width:0.999997"
           d="m 6187.681,9447.1982 c -10.16,1.02 -20.29,2.06 -30.42,3.1 -37.33,-23.95 -74.72,-48.08 -113.08,-74.77 47.6,24.4 95.5,48.16 143.5,71.67" /><path
           id="path2403"
           style="fill:#f29544;fill-opacity:1;fill-rule:nonzero;stroke:none;stroke-width:0.999997"
           d="m 6535.811,9418.2682 c -50.12,3.27 -99.91,6.9 -149.28,10.88 -299.55,-79.26 -595.15,-174.85 -892.26,-274.97 188.7201,93.13 367.63,196.82 541.09,309.33 -41.6,4.75 -82.8,9.69 -123.66,14.78 -253.72,-145.07 -494.33,-324.42 -740.22,-481.28 -36.64,-24.04 -75.14,-52.92 -115.32,-77.14 16.9,-14.95 35.56,-28.49 55.62,-40.58 347.71,188.24 796.99,286.53 1158.18,167.02 53.47,17.86 107.43,36.39 161.74,55.56 -153.69,38.9 -306.94,76.56 -462.25,91.62 205.59,15.12 391.19,115.32 566.36,224.78" /><path
           id="path2405"
           style="fill:#f29544;fill-opacity:1;fill-rule:nonzero;stroke:none;stroke-width:0.999997"
           d="m 6968.211,9395.9882 c -26.89,0.471 -53.83,1.41 -80.84,2.69 -11.36,0.54 -22.77,1.24 -34.15,1.86 -40.69,-36.22 -94.58,-62.5 -136.91,-93.07 27.5,-22.19 52.73,-45.43 76.29,-69.67 6.56,2.59 13.21,5.22 19.75,7.8 23.44,9.11 46.59,18.12 69.85,27.17 -11.69,18.74 -23.75,37.04 -36.71,54.2 55.65,-3.97 92.74,27.39 122.72,69.02" /><path
           id="path2407"
           style="fill:#f2b33d;fill-opacity:1;fill-rule:nonzero;stroke:none;stroke-width:0.999997"
           d="m 6845.491,9326.9682 c 12.96,-17.16 25.02,-35.46 36.71,-54.2 16.35,6.35 32.85,12.77 49.1,19.09 13.54,5.4 26.96,10.91 40.31,16.48 -1.08,30.15 -0.7403,59.42 0.95,87.59 -1.45,0.02 -2.9,0.03 -4.35,0.06 -29.98,-41.63 -67.07,-72.99 -122.72,-69.02" /><path
           id="path2409"
           style="fill:#f2b33d;fill-opacity:1;fill-rule:nonzero;stroke:none;stroke-width:0.999997"
           d="m 6853.221,9400.5382 c -18.97,1.04 -37.96,2.05 -56.99,3.18 -15.22,-1.03 -30.41,-1.25 -45.53,-0.93 -42.59,-41.07 -88.01,-78.47 -135.36,-111.8 35.52,-25.54 73.93,-49.83 106.22,-81.2 23.76,9.37 47.46,18.72 71.04,28.01 -23.56,24.24 -48.79,47.48 -76.29,69.67 42.33,30.57 96.22,56.85 136.91,93.07" /><path
           id="path2411"
           style="fill:#f29544;fill-opacity:1;fill-rule:nonzero;stroke:none;stroke-width:0.999997"
           d="m 6750.701,9402.7882 c -3.63,0.07 -7.27,0 -10.89,0.15 -16.48,0.73 -32.7,2.33 -48.74,4.28 -77.98,-62.45 -176.38,-102.99 -269.49,-145.48 71.97,-24.08 145.14,-51.04 214.7,-84.99 18.54,7.05 37.1,14.15 55.69,21.36 9.92,3.92 19.7,7.77 29.59,11.68 -32.29,31.37 -70.7,55.66 -106.22,81.2 47.35,33.33 92.77,70.73 135.36,111.8" /><path
           id="path2413"
           style="fill:#f2b33d;fill-opacity:1;fill-rule:nonzero;stroke:none;stroke-width:0.999997"
           d="m 6691.071,9407.2182 c -9.13,1.12 -18.2,2.36 -27.2,3.73 -20.97,1.09 -41.77,2.18 -62.85,3.28 -21.81,1.26 -43.53,2.63 -65.21,4.04 -175.17,-109.46 -360.77,-209.66 -566.36,-224.78 155.31,-15.06 308.56,-52.72 462.25,-91.62 67.68,23.88 135.91,48.79 204.58,74.88 -69.56,33.95 -142.73,60.91 -214.7,84.99 93.11,42.49 191.51,83.03 269.49,145.48" /><path
           id="path2415"
           style="fill:#f2b33d;fill-opacity:1;fill-rule:nonzero;stroke:none;stroke-width:0.999997"
           d="m 5426.911,9547.7682 c -40.18,6.55 -79.8,13.66 -118.75,21.79 -11.2,-3.39 -21.29,-6.75 -29.89,-10.26 -15.61,-5.86 -27.59,-10.23 -35.72,-13.02 -7.75,-2.67 -11.88,-3.86 -12.44,-3.59 -0.04,-0.02 -0.08,-0.03 -0.12,-0.05 -18,-180.21 -117.42,-369.72 -265.43,-481.57 4.21,-14.32 9.4,-28.54 16,-42.42 2.65,-5.71 5.57,-11.33 8.68,-16.88 196.96,127.87 334.02,329.17 437.67,546" /><path
           id="path2417"
           style="fill:#f2b33d;fill-opacity:1;fill-rule:nonzero;stroke:none;stroke-width:0.999997"
           d="m 5122.101,9473.1482 c -16.09,-12.63 -33.22,-27.45 -50.79,-45.18 -21.94,-22.48 -44.59,-49.44 -64.1,-82.17 -19.8,-32.47 -36.07,-71.01 -46.17,-114.14 -3.98,-17.93 -6.84,-36.78 -8.26,-56.17 83.33,79.72 144.01,186.26 169.32,297.66" /><path
           id="path2419"
           style="fill:#f29544;fill-opacity:1;fill-rule:nonzero;stroke:none;stroke-width:0.999997"
           d="m 5229.991,9542.6382 c -0.06,-0.03 -0.1,-0.06 -0.1599,-0.08 -0.25,-1.33 -15.92,-9.05 -43.93,-25.69 -17.15,-10.45 -39.24,-24.46 -63.8,-43.72 -25.31,-111.4 -85.99,-217.94 -169.32,-297.66 -2,-27.18 -1.06,-55.47 4.4,-84.12 1.88,-10.1 4.42,-20.23 7.38,-30.3 148.01,111.85 247.43,301.36 265.43,481.57" /><path
           id="path2421"
           style="fill:#f2b33d;fill-opacity:1;fill-rule:nonzero;stroke:none;stroke-width:0.999997"
           d="m 6061.771,10098.038 c -17.61,12.25 -35.06,24.39 -52.15,36.28 -52.01,36.28 -101.54,70.83 -148.4,103.52 -2.41,1.69 -4.74,3.31 -7.14,4.99 -250.43,-44.28 -495.07,-124.85 -736.06,-209.19 -106.72,-33.35 -213.47,-53.2298 -323.15,-59.8798 0.76,-2.91 1.4,-5.82 2.22,-8.71 4.42,-15.69 10.15,-31.18 16.91,-46.44 52.4,5.92 105.31,17.53 154.02,25.03 361.81,50.88 730.0001,133.5498 1093.75,154.3998" /><path
           id="path2423"
           style="fill:#f2b33d;fill-opacity:1;fill-rule:nonzero;stroke:none;stroke-width:0.999997"
           d="m 5488.021,10233.638 c 82.6201,33.8 165.2701,63.22 248.42,89.08 -2.8,1.79 -5.6599,3.71 -8.4499,5.47 -32.7,20.67 -64.44,38.79 -95.1501,54.17 -50.93,-43.96 -106.61,-87.58 -144.82,-148.72" /><path
           id="path2425"
           style="fill:#f29544;fill-opacity:1;fill-rule:nonzero;stroke:none;stroke-width:0.999997"
           d="m 5854.081,10242.828 c -41.09,28.71 -80.02,55.84 -117.64,79.89 -83.1499,-25.86 -165.7999,-55.28 -248.42,-89.08 38.21,61.14 93.89,104.76 144.82,148.72 -9.06,4.54 -18.06,8.91 -26.93,12.95 -26.3599,11.98 -51.7399,21.6 -75.9499,29.69 -217.3401,-190.51 -465.8701,-351.24 -745.6101,-392.54 1.63,-19.49 5.4,-39.1398 10.52,-58.6998 109.68,6.65 216.43,26.5298 323.15,59.8798 240.99,84.34 485.63,164.91 736.06,209.19" /><path
           id="path2427"
           style="fill:#f29544;fill-opacity:1;fill-rule:nonzero;stroke:none;stroke-width:0.999997"
           d="m 4910.851,9780.5082 c 36.28,-36.22 79.16,-67.77 126.88,-93.75 134.87,-13.28 268.43,-44.62 376.76,-111.09 34.53,-5.6 69.46,-10.9 104.9101,-16.26 64.32,-9.61 129.99,-19.05 196.8099,-28.2 -219.17,179.9 -512.51,262.26 -805.36,249.3" /><path
           id="path2429"
           style="fill:#f2b33d;fill-opacity:1;fill-rule:nonzero;stroke:none;stroke-width:0.999997"
           d="m 5063.021,9673.7082 c 65.89,-32.41 139.06,-55.34 215.89,-72.58 44.01,-9.91 89.38,-17.97 135.58,-25.46 -108.33,66.47 -241.89,97.81 -376.76,111.09 8.29,-4.51 16.72,-8.88 25.29,-13.05" /><path
           id="path2431"
           style="fill:#f2b33d;fill-opacity:1;fill-rule:nonzero;stroke:none;stroke-width:0.999997"
           d="m 4851.661,9851.8082 c 12.64,-18.44 26.67,-36.32 42.08,-53.36 5.52,-6.1 11.23,-12.07 17.11,-17.94 292.85,12.96 586.19,-69.4 805.36,-249.3 126.1,-17.25 256.44,-33.44 390.34,-47.66 -311.1,289.94 -814,398.62 -1254.89,368.26" /><path
           id="path2433"
           style="fill:#f2b33d;fill-opacity:1;fill-rule:nonzero;stroke:none;stroke-width:0.999997"
           d="m 6483.301,9805.0582 c -45.34,31.46 -89.76,62.29 -133.07,92.34 -16.89,11.75 -33.58,23.36 -50.14,34.88 -90.69,-2.12 -181.38,-4.52 -272.07,-8.64 80.42,14.62 155.57,23.98 233.12,35.73 -35.64,24.8 -70.41,48.9798 -104.42,72.6298 -259.88,-42.2598 -520.99,-70.2498 -788.7,-78.3598 375.97,-38.9 747.71,-82.2 1115.28,-148.58" /><path
           id="path2435"
           style="fill:#f29544;fill-opacity:1;fill-rule:nonzero;stroke:none;stroke-width:0.999997"
           d="m 6300.091,9932.2782 c -13.08,9.09 -26.07,18.14 -38.95,27.09 -77.55,-11.75 -152.7,-21.11 -233.12,-35.73 90.69,4.12 181.38,6.52 272.07,8.64" /><path
           id="path2437"
           style="fill:#f29544;fill-opacity:1;fill-rule:nonzero;stroke:none;stroke-width:0.999997"
           d="m 6572.741,9743.0282 c -10.89,7.55 -21.82,15.12 -32.61,22.6 -19.13,13.27 -38.04,26.39 -56.83,39.43 -367.57,66.38 -739.31,109.68 -1115.28,148.58 267.71,8.11 528.82,36.1 788.7,78.3598 -32.42,22.55 -64.09,44.58 -94.95,66.04 -363.7499,-20.85 -731.94,-103.5198 -1093.75,-154.3998 -48.71,-7.5 -101.62,-19.11 -154.02,-25.03 10.18,-22.94 22.91,-45.27 37.66,-66.8 440.89,30.36 943.79,-78.32 1254.89,-368.26 62.57,-6.64 125.97,-12.82 190.02,-18.51 -138.58,111.17 -277.23,220.99 -428.55,308.6 223.79,-82.89 468.18,-62.71 704.72,-30.61" /><path
           id="path2439"
           style="fill:#f29544;fill-opacity:1;fill-rule:nonzero;stroke:none;stroke-width:0.999997"
           d="m 6933.191,9572.4382 c -17.33,2.63 -34.44,6.1 -51.4,10.03 -62.58,-25.4 -139.37,-25.95 -203.77,-38.83 17.88,-35.77 32.9,-71.55 45.7,-107.58 7.63,-0.399 15.36,-0.81 22.97,-1.21 28.08,-1.57 55.93,-3.26 83.68,-4.9 -3.22,25.01 -7.03,49.73 -12.35,73.69 60.52,-33.02 118.02,-11.53 172.49,22.79 1.65,7.46 3.26,14.98 5.08,22.16 1.4,5.48 2.87,10.88 4.38,16.2 -0.4102,0.05 -0.81,0.111 -1.22,0.15 -21.28,2.31 -43.71,4.08 -65.56,7.5" /><path
           id="path2441"
           style="fill:#f2b33d;fill-opacity:1;fill-rule:nonzero;stroke:none;stroke-width:0.999997"
           d="m 6818.021,9503.6382 c 5.32,-23.96 9.13,-48.68 12.35,-73.69 19.51,-1.14 38.99,-2.29 58.35,-3.22 28.83,-1.4 57.49,-2.4 85.99,-2.85 3.34,36.39 8.74,70.72 15.8,102.55 -54.47,-34.32 -111.97,-55.81 -172.49,-22.79" /><path
           id="path2443"
           style="fill:#f2b33d;fill-opacity:1;fill-rule:nonzero;stroke:none;stroke-width:0.999997"
           d="m 6881.791,9582.4682 c -4.44,1.02 -8.94,1.91 -13.35,3.03 -37.92,9.53 -74.51,22.89 -109.17,39.44 -62.9,-22.34 -127.07,-39.27 -191.25,-51.3 24.47,-42.83 52.52,-85.72 70.73,-133.13 28.41,-1.49 56.77,-2.97 84.97,-4.45 -12.8,36.03 -27.82,71.81 -45.7,107.58 64.4,12.88 141.19,13.43 203.77,38.83" /><path
           id="path2445"
           style="fill:#f29544;fill-opacity:1;fill-rule:nonzero;stroke:none;stroke-width:0.999997"
           d="m 6759.271,9624.9382 c -4.19,2 -8.47,3.86 -12.6,5.96 -15.9,8.12 -31.16,16.97 -46.12,26.09 -108.49,-27.8 -227.77,-23.35 -342.53,-23.35 62.35,-58.2 124.59,-119.95 179.76,-187.22 21.57,-1.4 43.18,-2.76 64.87,-4.02 12.11,-0.639 24.03,-1.26 36.1,-1.89 -18.21,47.41 -46.26,90.3 -70.73,133.13 64.18,12.03 128.35,28.96 191.25,51.3" /><path
           id="path2447"
           style="fill:#f2b33d;fill-opacity:1;fill-rule:nonzero;stroke:none;stroke-width:0.999997"
           d="m 6358.021,9633.6382 c 114.76,0 234.04,-4.45 342.53,23.35 -20.98,12.81 -41.26,26.24 -61.01,39.77 -22.5,15.59 -44.71,30.98 -66.8,46.27 -236.54,-32.1 -480.93,-52.28 -704.72,30.61 151.32,-87.61 289.97,-197.43 428.55,-308.6 79.39,-7.06 159.81,-13.33 241.21,-18.62 -55.17,67.27 -117.41,129.02 -179.76,187.22" /><path
           id="path2449"
           style="fill:#f2b33d;fill-opacity:1;fill-rule:nonzero;stroke:none;stroke-width:0.999997"
           d="m 5496.051,10435.648 c -67.82,19.29 -122.57,26.04 -159.55,29.62 -18.53,1.71 -32.72,2.51 -42.26,3.11 -9,0.55 -13.71,0.94 -14.25,1.41 -0.06,0 -0.12,0 -0.1899,0 -101.8301,-174.73 -290.8201,-321.28 -493.0701,-365.9 -2.33,-16.33 -3.62,-33.01 -3.36,-50 0.03,-7.11 0.38,-14.26 0.98,-21.43 279.74,41.3 528.27,202.03 745.6101,392.54 -11.5701,3.86 -22.9601,7.49 -33.9101,10.65" /><path
           id="path2451"
           style="fill:#f2b33d;fill-opacity:1;fill-rule:nonzero;stroke:none;stroke-width:0.999997"
           d="m 5138.751,10449.878 c -22.35,-5.33 -46.8,-12.44 -73.11,-22.35 -32.7,-12.61 -68.21,-29.44 -103.23,-53.6 -35.18,-23.77 -69.6,-55.35 -99.9,-94.46 -12.58,-16.63 -24.41,-34.75 -34.99,-54.14 122.15,42.23 233.73,122.65 311.23,224.55" /><path
           id="path2453"
           style="fill:#f29544;fill-opacity:1;fill-rule:nonzero;stroke:none;stroke-width:0.999997"
           d="m 5279.801,10469.788 c -0.07,0 -0.14,-0.01 -0.21,-0.01 -0.97,-1.12 -20.41,-1.59 -56.45,-5.4 -22.09,-2.58 -50.8,-6.48 -84.39,-14.5 -77.5,-101.9 -189.08,-182.32 -311.23,-224.55 -14.44,-26.45 -26.45,-55.32 -34.13,-86.61 -2.82,-11.34 -4.98,-23 -6.66,-34.83 202.25,44.62 391.24,191.17 493.07,365.9" /><path
           id="path2455"
           style="fill:#f2b33d;fill-opacity:1;fill-rule:nonzero;stroke:none;stroke-width:0.999997"
           d="m 9269.821,8919.8682 c 11.3,9.96 21.8,20.48 31.5,31.62 1.7,2 3.2,4.08 4.9,6.1 -86.7,46.2 -166.1,102.03 -240.6,168.76 -138.9,133.27 -280.8,265.31 -434.1,380.9 -71.07,-10.07 -143.49,-19.77 -217.19,-28.96 253.69,-145.07 494.29,-324.42 740.19,-481.28 36.7,-24.04 75.2,-52.92 115.3,-77.14" /><path
           id="path2457"
           style="fill:#f2b33d;fill-opacity:1;fill-rule:nonzero;stroke:none;stroke-width:0.999997"
           d="m 8838.121,9427.4282 c -4.9,37.5 -17,72.29 -31.2,105.72 -21.2,-3.25 -42.4,-6.47 -63.8,-9.67 32.2,-31.01 63.9,-62.92 95,-96.05" /><path
           id="path2459"
           style="fill:#f29544;fill-opacity:1;fill-rule:nonzero;stroke:none;stroke-width:0.999997"
           d="m 9306.221,8957.5882 c 11.5,14.12 21.9,28.81 30.6,44.17 -197,127.88 -334.1,329.18 -437.7,546.01 -29.3,-4.79 -58.8,-9.43 -88.6,-14.07 -1.2,-0.189 -2.4,-0.369 -3.6,-0.549 14.2,-33.43 26.3,-68.22 31.2,-105.72 -31.1,33.13 -62.8,65.04 -95,96.05 -36.8,-5.5 -74,-10.91 -111.6,-16.23 153.3,-115.59 295.2,-247.63 434.1,-380.9 74.5,-66.73 153.9,-122.56 240.6,-168.76" /><path
           id="path2461"
           style="fill:#f29544;fill-opacity:1;fill-rule:nonzero;stroke:none;stroke-width:0.999997"
           d="m 8392.681,8939.7382 c 57.23,-17.21 113.63,-33.76 169.05,-49.69 31.99,-9.15 63.59,-18.15 94.89,-26.71 111.2,12.87 229.6,-10.67 342.6,-49.1 48.9,3.11 96.3,13.09 139.8,29.06 -233.1,118.7 -501.6,160.58 -746.34,96.44" /><path
           id="path2463"
           style="fill:#f2b33d;fill-opacity:1;fill-rule:nonzero;stroke:none;stroke-width:0.999997"
           d="m 8656.621,8863.3382 c 39.4,-10.77 78.3,-20.77 116.8,-28.85 69.1,-14.56 137.3,-23.11 203,-21.22 7.6,0.141 15.2,0.501 22.8,0.97 -113,38.43 -231.4,61.97 -342.6,49.1" /><path
           id="path2465"
           style="fill:#f2b33d;fill-opacity:1;fill-rule:nonzero;stroke:none;stroke-width:0.999997"
           d="m 8056.071,9046.3082 c 114.67,-38.29 227.18,-73.66 336.61,-106.57 244.74,64.14 513.24,22.26 746.34,-96.44 26.7,9.8 51.9,21.92 75.2,35.99 -347.7,188.24 -796.96,286.53 -1158.15,167.02" /><path
           id="path2467"
           style="fill:#f2b33d;fill-opacity:1;fill-rule:nonzero;stroke:none;stroke-width:0.999997"
           d="m 8290.671,9463.5082 c -40.29,-4.6 -80.95,-8.99 -121.9,-13.21 37.34,-23.95 74.73,-48.08 113.08,-74.77 -47.6,24.4 -95.5,48.16 -143.5,71.67 -65.52,-6.56 -131.8,-12.63 -198.85,-18.05 299.56,-79.26 595.15,-174.85 892.22,-274.97 -188.7,93.13 -367.59,196.82 -541.05,309.33" /><path
           id="path2469"
           style="fill:#f29544;fill-opacity:1;fill-rule:nonzero;stroke:none;stroke-width:0.999997"
           d="m 8168.771,9450.2982 c -10.13,-1.04 -20.25,-2.08 -30.42,-3.1 48,-23.51 95.9,-47.27 143.5,-71.67 -38.35,26.69 -75.74,50.82 -113.08,74.77" /><path
           id="path2471"
           style="fill:#f29544;fill-opacity:1;fill-rule:nonzero;stroke:none;stroke-width:0.999997"
           d="m 7894.341,9101.8682 c 54.3,-19.17 108.27,-37.7 161.73,-55.56 361.19,119.51 810.45,21.22 1158.15,-167.02 20.1,12.09 38.8,25.63 55.6,40.58 -40.1,24.22 -78.6,53.1 -115.3,77.14 -245.9,156.86 -486.5,336.21 -740.19,481.28 -40.85,-5.09 -82.06,-10.03 -123.66,-14.78 173.46,-112.51 352.35,-216.2 541.05,-309.33 -297.07,100.12 -592.66,195.71 -892.22,274.97 -49.37,-3.98 -99.15,-7.61 -149.27,-10.88 175.16,-109.46 360.76,-209.66 566.35,-224.78 -155.31,-15.06 -308.55,-52.72 -462.24,-91.62" /><path
           id="path2473"
           style="fill:#f29544;fill-opacity:1;fill-rule:nonzero;stroke:none;stroke-width:0.999997"
           d="m 7480.541,9326.9682 c -12.96,-17.16 -25.01,-35.46 -36.7,-54.2 23.25,-9.05 46.4,-18.06 69.84,-27.17 6.55,-2.58 13.2,-5.21 19.75,-7.8 23.56,24.24 48.8,47.48 76.29,69.67 -42.33,30.57 -96.21,56.85 -136.91,93.07 -11.37,-0.62 -22.78,-1.32 -34.15,-1.86 -27,-1.28 -53.95,-2.22 -80.84,-2.69 29.99,-41.63 67.07,-72.99 122.72,-69.02" /><path
           id="path2475"
           style="fill:#f2b33d;fill-opacity:1;fill-rule:nonzero;stroke:none;stroke-width:0.999997"
           d="m 7354.421,9308.3382 c 13.36,-5.57 26.77,-11.08 40.31,-16.48 16.26,-6.32 32.76,-12.74 49.11,-19.09 11.69,18.74 23.74,37.04 36.7,54.2 -55.65,-3.97 -92.73,27.39 -122.72,69.02 -1.45,-0.03 -2.9,-0.04 -4.35,-0.06 1.69,-28.17 2.03,-57.44 0.95,-87.59" /><path
           id="path2477"
           style="fill:#f2b33d;fill-opacity:1;fill-rule:nonzero;stroke:none;stroke-width:0.999997"
           d="m 7533.431,9237.7982 c 23.58,-9.29 47.29,-18.64 71.05,-28.01 32.29,31.37 70.7,55.66 106.21,81.2 -47.35,33.33 -92.77,70.73 -135.36,111.8 -15.11,-0.32 -30.3,-0.1 -45.52,0.93 -19.03,-1.13 -38.02,-2.14 -57,-3.18 40.7,-36.22 94.58,-62.5 136.91,-93.07 -27.49,-22.19 -52.73,-45.43 -76.29,-69.67" /><path
           id="path2479"
           style="fill:#f29544;fill-opacity:1;fill-rule:nonzero;stroke:none;stroke-width:0.999997"
           d="m 7634.961,9407.2182 c -16.04,-1.95 -32.25,-3.55 -48.74,-4.28 -3.61,-0.159 -7.25,-0.08 -10.89,-0.15 42.59,-41.07 88.01,-78.47 135.36,-111.8 -35.51,-25.54 -73.92,-49.83 -106.21,-81.2 9.89,-3.91 19.66,-7.76 29.58,-11.68 18.6,-7.21 37.15,-14.31 55.69,-21.36 69.57,33.95 142.74,60.91 214.71,84.99 -93.11,42.49 -191.52,83.03 -269.5,145.48" /><path
           id="path2481"
           style="fill:#f2b33d;fill-opacity:1;fill-rule:nonzero;stroke:none;stroke-width:0.999997"
           d="m 7904.461,9261.7382 c -71.97,-24.08 -145.14,-51.04 -214.71,-84.99 68.67,-26.09 136.91,-51 204.59,-74.88 153.69,38.9 306.93,76.56 462.24,91.62 -205.59,15.12 -391.19,115.32 -566.35,224.78 -21.68,-1.41 -43.4,-2.78 -65.22,-4.04 -21.07,-1.1 -41.87,-2.19 -62.84,-3.28 -9,-1.37 -18.07,-2.61 -27.21,-3.73 77.98,-62.45 176.39,-102.99 269.5,-145.48" /><path
           id="path2483"
           style="fill:#f2b33d;fill-opacity:1;fill-rule:nonzero;stroke:none;stroke-width:0.999997"
           d="m 9336.821,9001.7582 c 3.1,5.56 6,11.18 8.7,16.89 6.6,13.88 11.7,28.1 16,42.42 -148.1,111.85 -247.5,301.36 -265.5,481.57 0,0.02 -0.1,0.03 -0.1,0.05 -0.6,-0.27 -4.7,0.92 -12.3999,3.59 -8.2001,2.79 -20.1,7.16 -35.8001,13.02 -8.5999,3.51 -18.6,6.87 -29.8,10.26 -39,-8.13 -78.6,-15.24 -118.8,-21.79 103.6,-216.83 240.7,-418.13 437.7,-546.01" /><path
           id="path2485"
           style="fill:#f2b33d;fill-opacity:1;fill-rule:nonzero;stroke:none;stroke-width:0.999997"
           d="m 9373.221,9175.4882 c -1.4,19.39 -4.3,38.24 -8.2,56.17 -10.1,43.13 -26.4,81.67 -46.2,114.14 -19.5,32.73 -42.2,59.69 -64.1,82.17 -17.6,17.73 -34.7,32.55 -50.8,45.18 25.3,-111.4 86,-217.94 169.3,-297.66" /><path
           id="path2487"
           style="fill:#f29544;fill-opacity:1;fill-rule:nonzero;stroke:none;stroke-width:0.999997"
           d="m 9361.521,9061.0682 c 2.9,10.07 5.5,20.2 7.3,30.3 5.5,28.65 6.4,56.94 4.4,84.12 -83.3,79.72 -144,186.26 -169.3,297.66 -24.5,19.26 -46.6,33.27 -63.8,43.72 -28,16.64 -43.7,24.36 -43.9,25.69 -0.1,0.02 -0.1,0.05 -0.2002,0.08 18,-180.21 117.4,-369.72 265.5,-481.57" /><path
           id="path2489"
           style="fill:#f2b33d;fill-opacity:1;fill-rule:nonzero;stroke:none;stroke-width:0.999997"
           d="m 8471.961,10242.828 c -2.41,-1.68 -4.73,-3.3 -7.15,-4.99 -46.86,-32.69 -96.39,-67.24 -148.39,-103.52 -17.09,-11.89 -34.54,-24.03 -52.16,-36.28 363.76,-20.85 731.96,-103.5198 1093.76,-154.3998 48.7,-7.5 101.6,-19.11 154,-25.03 6.8,15.26 12.5,30.75 16.9,46.44 0.8,2.89 1.5,5.8 2.2,8.71 -109.6,6.65 -216.4,26.5298 -323.1,59.8798 -241,84.34 -485.6,164.91 -736.06,209.19" /><path
           id="path2491"
           style="fill:#f2b33d;fill-opacity:1;fill-rule:nonzero;stroke:none;stroke-width:0.999997"
           d="m 8693.221,10382.358 c -30.7,-15.38 -62.5,-33.5 -95.2,-54.17 -2.8,-1.76 -5.6,-3.68 -8.4,-5.47 83.1,-25.86 165.8,-55.28 248.4,-89.08 -38.2,61.14 -93.9,104.76 -144.8,148.72" /><path
           id="path2493"
           style="fill:#f29544;fill-opacity:1;fill-rule:nonzero;stroke:none;stroke-width:0.999997"
           d="m 8720.121,10395.308 c -8.9,-4.04 -17.9,-8.41 -26.9,-12.95 50.9,-43.96 106.6,-87.58 144.8,-148.72 -82.6,33.8 -165.3,63.22 -248.4,89.08 -37.64,-24.05 -76.57,-51.18 -117.66,-79.89 250.46,-44.28 495.06,-124.85 736.06,-209.19 106.7,-33.35 213.5,-53.2298 323.1,-59.8798 5.2,19.56 8.9,39.2098 10.6,58.6998 -279.8,41.3 -528.3,202.03 -745.7,392.54 -24.2,-8.09 -49.5,-17.71 -75.9,-29.69" /><path
           id="path2495"
           style="fill:#f29544;fill-opacity:1;fill-rule:nonzero;stroke:none;stroke-width:0.999997"
           d="m 8609.821,9531.2082 c 66.8,9.15 132.5,18.59 196.8,28.2 35.5,5.36 70.4,10.66 104.9,16.26 108.4,66.47 241.9,97.81 376.8,111.09 47.7,25.98 90.6,57.53 126.9,93.75 -292.9,12.96 -586.2,-69.4 -805.4,-249.3" /><path
           id="path2497"
           style="fill:#f2b33d;fill-opacity:1;fill-rule:nonzero;stroke:none;stroke-width:0.999997"
           d="m 9047.121,9601.1282 c 76.8,17.24 150,40.17 215.9,72.58 8.6,4.17 17,8.54 25.3,13.05 -134.9,-13.28 -268.4,-44.62 -376.8,-111.09 46.2,7.49 91.6,15.55 135.6,25.46" /><path
           id="path2499"
           style="fill:#f2b33d;fill-opacity:1;fill-rule:nonzero;stroke:none;stroke-width:0.999997"
           d="m 8219.481,9483.5482 c 133.9,14.22 264.24,30.41 390.34,47.66 219.2,179.9 512.5,262.26 805.4,249.3 5.8,5.87 11.6,11.84 17.1,17.94 15.4,17.04 29.4,34.92 42.1,53.36 -440.9,30.36 -943.83,-78.32 -1254.94,-368.26" /><path
           id="path2501"
           style="fill:#f2b33d;fill-opacity:1;fill-rule:nonzero;stroke:none;stroke-width:0.999997"
           d="m 8169.311,10031.998 c -34.01,-23.65 -68.77,-47.8298 -104.42,-72.6298 77.55,-11.75 152.71,-21.11 233.13,-35.73 -90.69,4.12 -181.39,6.52 -272.08,8.64 -16.56,-11.52 -33.25,-23.13 -50.14,-34.88 -43.31,-30.05 -87.72,-60.88 -133.06,-92.34 367.57,66.38 739.28,109.68 1115.28,148.58 -267.7,8.11 -528.83,36.1 -788.71,78.3598" /><path
           id="path2503"
           style="fill:#f29544;fill-opacity:1;fill-rule:nonzero;stroke:none;stroke-width:0.999997"
           d="m 8064.891,9959.3682 c -12.87,-8.95 -25.87,-18 -38.95,-27.09 90.69,-2.12 181.39,-4.52 272.08,-8.64 -80.42,14.62 -155.58,23.98 -233.13,35.73" /><path
           id="path2505"
           style="fill:#f29544;fill-opacity:1;fill-rule:nonzero;stroke:none;stroke-width:0.999997"
           d="m 8264.261,10098.038 c -30.86,-21.46 -62.53,-43.49 -94.95,-66.04 259.88,-42.2598 521.01,-70.2498 788.71,-78.3598 -376,-38.9 -747.71,-82.2 -1115.28,-148.58 -18.8,-13.04 -37.71,-26.16 -56.83,-39.43 -10.8,-7.48 -21.72,-15.05 -32.62,-22.6 236.55,-32.1 480.93,-52.28 704.73,30.61 -151.33,-87.61 -289.97,-197.43 -428.55,-308.6 64.04,5.69 127.44,11.87 190.01,18.51 311.11,289.94 814.04,398.62 1254.94,368.26 14.7,21.53 27.4,43.86 37.6,66.8 -52.4,5.92 -105.3,17.53 -154,25.03 -361.8,50.88 -730,133.5498 -1093.76,154.3998" /><path
           id="path2507"
           style="fill:#f29544;fill-opacity:1;fill-rule:nonzero;stroke:none;stroke-width:0.999997"
           d="m 7444.241,9582.4682 c -16.95,-3.93 -34.06,-7.4 -51.4,-10.03 -21.84,-3.42 -44.28,-5.19 -65.55,-7.5 -0.4103,-0.04 -0.82,-0.1 -1.23,-0.15 1.52,-5.32 2.98,-10.72 4.38,-16.2 1.82,-7.18 3.43,-14.7 5.09,-22.16 54.47,-34.32 111.96,-55.81 172.49,-22.79 -5.32,-23.96 -9.13,-48.68 -12.36,-73.69 27.75,1.64 55.61,3.33 83.69,4.9 7.61,0.4 15.34,0.81 22.97,1.21 12.8,36.03 27.82,71.81 45.7,107.58 -64.41,12.88 -141.2,13.43 -203.78,38.83" /><path
           id="path2509"
           style="fill:#f2b33d;fill-opacity:1;fill-rule:nonzero;stroke:none;stroke-width:0.999997"
           d="m 7335.531,9526.4282 c 7.06,-31.83 12.45,-66.16 15.79,-102.55 28.5,0.45 57.16,1.45 86,2.85 19.35,0.93 38.83,2.08 58.34,3.22 3.23,25.01 7.04,49.73 12.36,73.69 -60.53,-33.02 -118.02,-11.53 -172.49,22.79" /><path
           id="path2511"
           style="fill:#f2b33d;fill-opacity:1;fill-rule:nonzero;stroke:none;stroke-width:0.999997"
           d="m 7566.771,9624.9382 c -34.66,-16.55 -71.25,-29.91 -109.18,-39.44 -4.41,-1.12 -8.91,-2.01 -13.35,-3.03 62.58,-25.4 139.37,-25.95 203.78,-38.83 -17.88,-35.77 -32.9,-71.55 -45.7,-107.58 28.2,1.48 56.55,2.96 84.97,4.45 18.21,47.41 46.26,90.3 70.73,133.13 -64.19,12.03 -128.36,28.96 -191.25,51.3" /><path
           id="path2513"
           style="fill:#f29544;fill-opacity:1;fill-rule:nonzero;stroke:none;stroke-width:0.999997"
           d="m 7968.021,9633.6382 c -114.77,0 -234.04,-4.45 -342.54,23.35 -14.95,-9.12 -30.21,-17.97 -46.11,-26.09 -4.13,-2.1 -8.41,-3.96 -12.6,-5.96 62.89,-22.34 127.06,-39.27 191.25,-51.3 -24.47,-42.83 -52.52,-85.72 -70.73,-133.13 12.07,0.63 23.98,1.25 36.09,1.89 21.69,1.26 43.3,2.62 64.87,4.02 55.17,67.27 117.41,129.02 179.77,187.22" /><path
           id="path2515"
           style="fill:#f2b33d;fill-opacity:1;fill-rule:nonzero;stroke:none;stroke-width:0.999997"
           d="m 7753.291,9743.0282 c -22.09,-15.29 -44.3,-30.68 -66.8,-46.27 -19.75,-13.53 -40.02,-26.96 -61.01,-39.77 108.5,-27.8 227.77,-23.35 342.54,-23.35 -62.36,-58.2 -124.6,-119.95 -179.77,-187.22 81.4,5.29 161.82,11.56 241.22,18.62 138.58,111.17 277.22,220.99 428.55,308.6 -223.8,-82.89 -468.18,-62.71 -704.73,-30.61" /><path
           id="path2517"
           style="fill:#f2b33d;fill-opacity:1;fill-rule:nonzero;stroke:none;stroke-width:0.999997"
           d="m 9046.221,10469.788 c 0,0 -0.1,0 -0.2003,0 -0.5002,-0.47 -5.2,-0.86 -14.2,-1.41 -9.6,-0.6 -23.8,-1.4 -42.3,-3.11 -36.9997,-3.58 -91.6997,-10.33 -159.4997,-29.62 -11,-3.16 -22.4,-6.79 -34,-10.65 217.4,-190.51 465.9,-351.24 745.7,-392.54 0.6,7.17 0.9,14.32 0.9,21.43 0.3,16.99 -1,33.67 -3.3,50 -202.3,44.62 -391.3,191.17 -493.1,365.9" /><path
           id="path2519"
           style="fill:#f2b33d;fill-opacity:1;fill-rule:nonzero;stroke:none;stroke-width:0.999997"
           d="m 9498.521,10225.328 c -10.6,19.39 -22.4,37.51 -35,54.14 -30.3,39.11 -64.7,70.69 -99.9,94.46 -35,24.16 -70.5,40.99 -103.2,53.6 -26.3,9.91 -50.8,17.02 -73.1,22.35 77.5,-101.9 189,-182.32 311.2,-224.55" /><path
           id="path2521"
           style="fill:#f29544;fill-opacity:1;fill-rule:nonzero;stroke:none;stroke-width:0.999997"
           d="m 9539.321,10103.888 c -1.7,11.83 -3.9,23.49 -6.7,34.83 -7.7,31.29 -19.7,60.16 -34.1,86.61 -122.2,42.23 -233.7,122.65 -311.2,224.55 -33.6,8.02 -62.3,11.92 -84.4,14.5 -36.1,3.81 -55.5,4.28 -56.5,5.4 0,0 -0.1,0.01 -0.2002,0.01 101.8002,-174.73 290.8002,-321.28 493.1002,-365.9" /><path
           id="path2523"
           style="fill:#b83d93;fill-opacity:1;fill-rule:nonzero;stroke:none;stroke-width:0.999997"
           d="m 7040.811,9083.1582 c 1.36,-3.49 2.63,-7 4.07,-10.47 11.63,-27.99 26.36,-55.37 45.7,-78.59 19.13,-23 44.74,-41.39 72.44,-41.35 27.69,-0.04 53.3,18.35 72.43,41.35 14.57,17.48 26.51,37.33 36.49,58.02 -70.06,-17.33 -165.57,-11 -231.13,31.04" /><path
           id="path2525"
           style="fill:#f25c93;fill-opacity:1;fill-rule:nonzero;stroke:none;stroke-width:0.999997"
           d="m 7323.951,9243.8082 c 13.63,112.7 5.75,216.47 -12.9,300.08 -5.26,23.38 -11.55,45.14 -18.57,65.22 -43.84,-1 -89.45,13.4 -124.46,44.53 -32.2,-38.64 -80.99,-35.8 -127.67,-26.21 -9.83,-24.87 -18.47,-52.85 -25.36,-83.54 -18.66,-83.61 -26.54,-187.38 -12.91,-300.08 6.67,-52.67 18.12,-107.6 38.73,-160.65 65.56,-42.04 161.07,-48.37 231.13,-31.04 3.27,6.78 6.34,13.66 9.21,20.57 23.3,56.26 35.7,114.99 42.8,171.12" /><path
           id="path2527"
           style="fill:#b83d93;fill-opacity:1;fill-rule:nonzero;stroke:none;stroke-width:0.999997"
           d="m 7206.311,9687.2082 c -9.99,4.45 -19.6,9.95 -28.61,16.4 -4.48,3.26 -8.83,6.72 -13.04,10.39 l -1.62,1.48 c -0.037,0.04 -0.023,0.02 -0.023,0.02 0,0 0.023,0.02 -0.03,-0.02 l -1.62,-1.48 c -4.2,-3.67 -8.55,-7.13 -13.04,-10.39 -9.01,-6.45 -18.6201,-11.95 -28.6101,-16.4 -18.48,-8.26 -38.28,-12.64 -57.8499,-13.58 -7.63,-13.77 -14.8401,-29.29 -21.52,-46.2 46.68,-9.59 95.47,-12.43 127.6699,26.21 35.01,-31.13 80.6201,-45.53 124.4601,-44.53 -8.46,24.21 -18.0101,45.92 -28.3101,64.52 -19.5699,0.94 -39.3699,5.32 -57.8599,13.58" /><path
           id="path2529"
           style="fill:#fbc43b;fill-opacity:1;fill-rule:nonzero;stroke:none;stroke-width:0.999997"
           d="m 6978.021,9763.6382 c 70,-30 170,0 180,80 20,-90 120,-110 190,-80 24.34,4.87 43.92,21.64 59.93,44.44 0.3398,1.51 0.78,3.01 1.07,4.5 5.72,28.73 1.71,56.9 -7.56,80.15 -9.73,23.14 -23.98,41.9 -39.43,54.99 -15.4,13.2 -31.18,21.64 -44.71,26.83 -27.32,10.07 -44.43,9.91 -44.3,12.48 0,-4.17 -13.79,-6.68 -33.45,-14.08 -9.83,-3.72 -21.09,-8.79 -32.55,-16.01 -5.71,-3.6 -11.54,-7.61 -17.16,-12.3 -1.45,-1.11 -2.82,-2.36 -4.22,-3.58 l -2.11,-1.84 c -0.5903,-0.49 -2.38,-2.33 -3.52,-3.44 -2.65,-2.65 -5.33,-5.32 -8.03,-8.01 -2.97,-3.06 -5.96,-6.14 -8.96,-9.24 -3.01,3.1 -6,6.18 -8.96,9.24 -0.06,0.05 -0.1102,0.11 -0.1597,0.16 -2.64,2.63 -5.2701,5.25 -7.8801,7.85 -1.14,1.11 -2.9199,2.95 -3.5199,3.44 l -2.1101,1.84 c -1.3999,1.22 -2.76,2.47 -4.21,3.58 -5.6199,4.69 -11.46,8.7 -17.1699,12.3 -11.4501,7.22 -22.7201,12.29 -32.5401,16.01 -19.6599,7.4 -33.45,9.91 -33.45,14.08 0.1298,-2.57 -16.98,-2.41 -44.31,-12.48 -13.53,-5.19 -29.3,-13.63 -44.7,-26.83 -15.4599,-13.09 -29.7099,-31.85 -39.4299,-54.99 -6.8501,-17.18 -10.8,-37.04 -10.1001,-57.84 10.86,-31.7 34.54,-56.75 63.54,-71.25" /><path
           id="path2531"
           style="fill:#fb973b;fill-opacity:1;fill-rule:nonzero;stroke:none;stroke-width:0.999997"
           d="m 7348.021,9763.6382 c -70,-30 -170,-10 -190,80 -10,-80 -110,-110 -180,-80 -29,14.5 -52.68,39.55 -63.54,71.25 0.24,-7.34 1.04,-14.8 2.53,-22.31 5.56,-28.51 20.84,-57.46 45.83,-78.49 24.57,-21.28 58.29,-34.12 93.58,-33.15 17.57,0.51 35.31,4.42 51.82,11.89 8.25,3.73 16.2,8.31 23.65,13.68 3.72,2.72 7.32,5.6 10.81,8.63 l 9.5,9.26 1.68,1.74 9.14,9.38 10.82,-11.12 9.49,-9.26 c 3.5,-3.03 7.1,-5.91 10.81,-8.63 7.46,-5.37 15.4,-9.95 23.66,-13.68 16.5,-7.47 34.24,-11.38 51.82,-11.89 35.28,-0.97 69,11.87 93.58,33.15 23.67,19.93 38.52,46.96 44.75,73.99 -16.01,-22.8 -35.59,-39.57 -59.93,-44.44" /><path
           id="path2533"
           style="fill:#603813;fill-opacity:1;fill-rule:nonzero;stroke:none;stroke-width:0.999997"
           d="m 7323.951,9243.8082 c -7.1,-56.13 -19.5,-114.86 -42.8,-171.12 -11.63,-27.99 -26.35,-55.37 -45.7,-78.59 -19.13,-23 -44.74,-41.39 -72.43,-41.35 -27.7,-0.04 -53.31,18.35 -72.44,41.35 -19.34,23.22 -34.07,50.6 -45.7,78.59 -23.29,56.26 -35.69,114.99 -42.8,171.12 -13.63,112.7 -5.75,216.47 12.91,300.08 11.58,51.56 28.03,95.72 46.88,129.74 19.57,0.94 39.37,5.32 57.85,13.58 9.99,4.45 19.6,9.95 28.61,16.4 4.49,3.26 8.84,6.72 13.04,10.39 l 1.62,1.48 c 0.052,0.04 0.03,0.02 0.03,0.02 0,0 -0.023,0.02 0.023,-0.02 l 1.62,-1.48 c 4.2101,-3.67 8.5601,-7.13 13.0401,-10.39 9.0099,-6.45 18.62,-11.95 28.61,-16.4 18.49,-8.26 38.29,-12.64 57.8599,-13.58 18.85,-34.02 35.3001,-78.18 46.8801,-129.74 18.6499,-83.61 26.5299,-187.38 12.9,-300.08 z m 2226.07,899.3898 c -14.7,56.86 -42.6,105.64 -74,145.97 -32.1,40.09 -68.2,72.08 -104.9,95.93 -36.6,24.22 -73.3,40.66 -106.9,52.74 -67.8,23.7 -123.6,29.71 -160.8,32.21 -18.8,1.12 -33.1,1.22 -42.7,0.97 -9.6,-0.28 -14.5,-0.66 -14.5,-1.15 0,-0.03 0.2002,-0.06 0.2002,-0.09 1,-1.12 20.4,-1.59 56.5,-5.4 22.1,-2.58 50.8001,-6.48 84.4001,-14.5 22.2999,-5.33 46.8,-12.44 73.0999,-22.35 32.7,-12.61 68.2,-29.44 103.2,-53.6 35.2,-23.77 69.6,-55.35 99.9,-94.46 12.6,-16.63 24.4,-34.75 35,-54.14 14.4,-26.45 26.4,-55.32 34.1,-86.61 2.8,-11.34 5,-23 6.7,-34.83 2.3,-16.33 3.6,-33.01 3.3,-50 0,-7.11 -0.3,-14.26 -0.9,-21.43 -1.7,-19.49 -5.4,-39.1398 -10.6,-58.6998 -0.6998,-2.91 -1.4,-5.82 -2.2,-8.71 -4.4,-15.69 -10.1,-31.18 -16.9,-46.44 -10.2,-22.94 -22.9,-45.27 -37.6,-66.8 -12.7,-18.44 -26.7,-36.32 -42.1,-53.36 -5.5,-6.1 -11.3,-12.07 -17.1,-17.94 -36.3,-36.22 -79.2,-67.77 -126.9,-93.75 -8.3,-4.51 -16.7,-8.88 -25.3,-13.05 -65.9,-32.41 -139.1,-55.34 -215.9,-72.58 -43.9999,-9.91 -89.4,-17.97 -135.6,-25.46 -34.5,-5.6 -69.4,-10.9 -104.8999,-16.26 -64.3001,-9.61 -130.0001,-19.05 -196.8001,-28.2 -126.1,-17.25 -256.44,-33.44 -390.3399,-47.66 -62.5701,-6.64 -125.97,-12.82 -190.0101,-18.51 -79.4,-7.06 -159.8199,-13.33 -241.22,-18.62 -21.57,-1.4 -43.18,-2.76 -64.87,-4.02 -12.11,-0.639 -24.02,-1.26 -36.09,-1.89 -28.42,-1.49 -56.77,-2.97 -84.97,-4.45 -7.63,-0.399 -15.36,-0.81 -22.97,-1.21 -28.08,-1.57 -55.94,-3.26 -83.69,-4.9 -19.51,-1.14 -38.99,-2.29 -58.34,-3.22 -28.84,-1.4 -57.5,-2.4 -86,-2.85 -3.34,36.39 -8.73,70.72 -15.79,102.55 -1.66,7.46 -3.27,14.98 -5.09,22.16 -1.4,5.48 -2.86,10.88 -4.38,16.2 0.4103,0.05 0.82,0.111 1.23,0.15 21.27,2.31 43.71,4.08 65.55,7.5 17.34,2.63 34.45,6.1 51.4,10.03 4.44,1.02 8.94,1.91 13.35,3.03 37.93,9.53 74.52,22.89 109.18,39.44 4.19,2 8.47,3.86 12.6,5.96 15.9,8.12 31.16,16.97 46.11,26.09 20.99,12.81 41.26,26.24 61.01,39.77 22.5,15.59 44.71,30.98 66.8,46.27 10.9,7.55 21.82,15.12 32.62,22.6 19.1201,13.27 38.03,26.39 56.8301,39.43 45.3399,31.46 89.7499,62.29 133.0599,92.34 16.89,11.75 33.58,23.36 50.14,34.88 13.08,9.09 26.0801,18.14 38.9501,27.09 35.6499,24.8 70.41,48.9798 104.4199,72.6298 32.42,22.55 64.0901,44.58 94.95,66.04 17.62,12.25 35.07,24.39 52.16,36.28 52,36.28 101.53,70.83 148.39,103.52 2.42,1.69 4.74,3.31 7.15,4.99 41.09,28.71 80.02,55.84 117.66,79.89 2.8,1.79 5.6,3.71 8.4,5.47 32.7,20.67 64.5,38.79 95.2,54.17 9,4.54 18,8.91 26.9,12.95 26.4,11.98 51.7001,21.6 75.9,29.69 11.6,3.86 23,7.49 34.0001,10.65 67.8,19.29 122.4999,26.04 159.4999,29.62 18.5,1.71 32.7,2.51 42.3,3.11 9,0.55 13.7,0.94 14.2001,1.41 0.1,0.03 0.2002,0.05 0.2002,0.08 0,0.47 -4.9,1.03 -14.5,1.4 -9.6,0.34 -23.7999,0.47 -42.6,-0.33 -37.2999,-1.76 -92.7999,-6.78 -162,-24.7 -34.5999,-9.07 -72.5,-21.35 -112.4,-38.64 -40,-17.3 -81.8,-39.59 -125,-66 -43.26,-26.36 -87.88,-56.85 -135.1,-88.98 -47.22,-32.16 -97.13,-66.17 -149.53,-101.87 -104.73,-71.56 -219.43,-149.94 -342.57,-234.0798 -61.5199,-42.14 -125.1499,-85.72 -190.6999,-130.61 -32.7601,-22.44 -65.9901,-45.2 -99.6701,-68.29 -33.64,-22.83 -67.97,-45.2 -104.56,-63.69 -36.53,-18.38 -75.66,-32.78 -116.47,-42.87 -20.39,-5.08 -41.17,-9.2 -62.23,-12.32 -21.09,-3.23 -42.22,-4.81 -64.58,-7.16 -2.12,-0.23 -4.25,-0.519 -6.38,-0.78 -10.53,31.38 -22.96,59.24 -36.64,82.72 37.79,2.2 73.22,17.52 99.04,40.86 29.15,25.61 46.33,60.36 51.73,93.94 5.59,33.76 -0.42,66.16 -12.3,92.21 -12.35,25.95 -29.71,46.02 -47.83,59.33 -18.1,13.44 -36.15,21.07 -51.24,25 -30.55,7.44 -47.85,3.28 -47.67,2.02 -0.1297,-2.57 16.98,-2.41 44.3,-12.48 13.53,-5.19 29.31,-13.63 44.71,-26.83 15.45,-13.09 29.7,-31.85 39.43,-54.99 9.27,-23.25 13.28,-51.42 7.56,-80.15 -5.55,-28.51 -20.84,-57.46 -45.82,-78.49 -24.58,-21.28 -58.3,-34.12 -93.58,-33.15 -17.58,0.51 -35.3199,4.42 -51.8199,11.89 -8.2601,3.73 -16.2,8.31 -23.6601,13.68 -3.71,2.72 -7.31,5.6 -10.8099,8.63 l -9.4901,9.26 -10.8199,11.12 -9.1401,-9.38 -1.68,-1.74 -9.5,-9.26 c -3.49,-3.03 -7.09,-5.91 -10.81,-8.63 -7.4499,-5.37 -15.3999,-9.95 -23.6499,-13.68 -16.5101,-7.47 -34.2501,-11.38 -51.8201,-11.89 -35.29,-0.97 -69.01,11.87 -93.58,33.15 -24.99,21.03 -40.2699,49.98 -45.83,78.49 -5.71,28.73 -1.6999,56.9 7.5701,80.15 9.72,23.14 23.97,41.9 39.4299,54.99 15.4,13.2 31.17,21.64 44.7,26.83 27.33,10.07 44.44,9.91 44.31,12.48 0.1703,1.26 -17.13,5.42 -47.67,-2.02 -15.0999,-3.93 -33.15,-11.56 -51.24,-25 -18.12,-13.31 -35.49,-33.38 -47.84,-59.33 -11.88,-26.05 -17.88,-58.45 -12.2899,-92.21 5.3899,-33.58 22.5699,-68.33 51.72,-93.94 25.83,-23.34 61.26,-38.66 99.0399,-40.86 -13.68,-23.48 -26.1099,-51.34 -36.6399,-82.72 -2.1201,0.261 -4.26,0.55 -6.3701,0.78 -22.3699,2.35 -43.5,3.93 -64.5799,7.16 -21.06,3.12 -41.8401,7.24 -62.2401,12.32 -40.8,10.09 -79.9299,24.49 -116.47,42.87 -36.59,18.49 -70.91,40.86 -104.56,63.69 -33.68,23.09 -66.91,45.85 -99.67,68.29 -65.54,44.89 -129.17,88.47 -190.7,130.61 -123.13,84.1398 -237.8399,162.5198 -342.56,234.0798 -52.41,35.7 -102.32,69.71 -149.54,101.87 -47.2099,32.13 -91.84,62.62 -135.0999,88.98 -43.2,26.41 -84.99,48.7 -124.95,66 -39.9801,17.29 -77.89,29.57 -112.41,38.64 -69.21,17.92 -124.69,22.94 -162.06,24.7 -18.73,0.8 -33.03,0.67 -42.62,0.33 -9.59,-0.37 -14.49,-0.93 -14.49,-1.4 0,-0.03 0.18,-0.05 0.21,-0.08 0.54,-0.47 5.25,-0.86 14.25,-1.41 9.54,-0.6 23.73,-1.4 42.26,-3.11 36.98,-3.58 91.73,-10.33 159.55,-29.62 10.95,-3.16 22.34,-6.79 33.91,-10.65 24.21,-8.09 49.59,-17.71 75.9499,-29.69 8.8701,-4.04 17.8701,-8.41 26.9301,-12.95 30.71,-15.38 62.45,-33.5 95.15,-54.17 2.79,-1.76 5.65,-3.68 8.4499,-5.47 37.62,-24.05 76.55,-51.18 117.6401,-79.89 2.4,-1.68 4.7299,-3.3 7.14,-4.99 46.86,-32.69 96.39,-67.24 148.3999,-103.52 17.09,-11.89 34.5401,-24.03 52.1501,-36.28 30.8599,-21.46 62.5299,-43.49 94.95,-66.04 34.0099,-23.65 68.7799,-47.8298 104.4199,-72.6298 12.88,-8.95 25.87,-18 38.95,-27.09 16.56,-11.52 33.25,-23.13 50.14,-34.88 43.31,-30.05 87.73,-60.88 133.07,-92.34 18.79,-13.04 37.7,-26.16 56.83,-39.43 10.79,-7.48 21.72,-15.05 32.61,-22.6 22.09,-15.29 44.3,-30.68 66.8,-46.27 19.75,-13.53 40.03,-26.96 61.01,-39.77 14.96,-9.12 30.22,-17.97 46.12,-26.09 4.13,-2.1 8.41,-3.96 12.6,-5.96 34.6601,-16.55 71.25,-29.91 109.17,-39.44 4.41,-1.12 8.91,-2.01 13.35,-3.03 16.9601,-3.93 34.07,-7.4 51.4001,-10.03 21.8499,-3.42 44.28,-5.19 65.5599,-7.5 0.4103,-0.04 0.81,-0.1 1.2201,-0.15 -1.5101,-5.32 -2.9801,-10.72 -4.38,-16.2 -1.8201,-7.18 -3.4301,-14.7 -5.0801,-22.16 -7.06,-31.83 -12.46,-66.16 -15.7999,-102.55 -28.5,0.45 -57.1601,1.45 -85.9901,2.85 -19.36,0.93 -38.8399,2.08 -58.35,3.22 -27.75,1.64 -55.6,3.33 -83.68,4.9 -7.61,0.4 -15.34,0.81 -22.97,1.21 -28.2,1.48 -56.56,2.96 -84.97,4.45 -12.07,0.63 -23.99,1.25 -36.1,1.89 -21.69,1.26 -43.3,2.62 -64.87,4.02 -81.4,5.29 -161.82,11.56 -241.21,18.62 -64.05,5.69 -127.45,11.87 -190.02,18.51 -133.9,14.22 -264.24,30.41 -390.3399,47.66 -66.82,9.15 -132.49,18.59 -196.81,28.2 -35.45,5.36 -70.38,10.66 -104.91,16.26 -46.2,7.49 -91.57,15.55 -135.58,25.46 -76.83,17.24 -150,40.17 -215.89,72.58 -8.57,4.17 -17,8.54 -25.29,13.05 -47.72,25.98 -90.6,57.53 -126.88,93.75 -5.88,5.87 -11.59,11.84 -17.11,17.94 -15.41,17.04 -29.44,34.92 -42.08,53.36 -14.75,21.53 -27.48,43.86 -37.66,66.8 -6.76,15.26 -12.49,30.75 -16.91,46.44 -0.82,2.89 -1.46,5.8 -2.22,8.71 -5.12,19.56 -8.89,39.2098 -10.52,58.6998 -0.6,7.17 -0.95,14.32 -0.98,21.43 -0.26,16.99 1.03,33.67 3.36,50 1.68,11.83 3.84,23.49 6.66,34.83 7.68,31.29 19.69,60.16 34.13,86.61 10.58,19.39 22.41,37.51 34.99,54.14 30.3,39.11 64.72,70.69 99.9,94.46 35.02,24.16 70.53,40.99 103.23,53.6 26.31,9.91 50.76,17.02 73.11,22.35 33.59,8.02 62.3,11.92 84.39,14.5 36.04,3.81 55.48,4.28 56.45,5.4 0.03,0.03 0.1899,0.06 0.1899,0.09 0,0.49 -4.91,0.87 -14.51,1.15 -9.59,0.25 -23.89,0.15 -42.61,-0.97 -37.2705,-2.5 -93.0405,-8.51 -160.8205,-32.21 -33.67,-12.08 -70.37,-28.52 -106.91,-52.74 -36.74,-23.85 -72.85,-55.84 -104.87,-95.93 -31.45,-40.33 -59.33,-89.11 -74.05,-145.97 -7.43,-28.31 -11.75,-58.44 -11.62,-89.49 -0.19,-31.08 4.94,-62.7998 13.51,-94.1598 17.13,-63.03 52.83,-123.02 99.7,-175.72 46.93,-52.82 107.14,-97.52 175.04,-131.09 67.84,-33.94 142.78,-57.87 220.76,-75.8 7.1,-1.65 14.36,-3.02 21.5,-4.57 -6.71,-2.55 -13.07,-5.11 -18.63,-7.74 -15.42,-6.77 -27.11,-12.04 -34.89,-15.72 -7.77,-3.67 -11.65,-5.77 -11.44,-6.21 0.01,-0.02 0.15,0 0.1701,0 0.56,-0.27 4.69,0.92 12.44,3.59 8.13,2.79 20.11,7.16 35.72,13.02 8.6,3.51 18.69,6.87 29.89,10.26 38.95,-8.13 78.57,-15.24 118.75,-21.79 29.3,-4.79 58.78,-9.43 88.5799,-14.07 1.2101,-0.19 2.4401,-0.37 3.6401,-0.55 21.1399,-3.25 42.4099,-6.47 63.8199,-9.67 36.79,-5.5 74.01,-10.91 111.58,-16.23 71.05,-10.07 143.48,-19.77 217.17,-28.96 40.86,-5.09 82.06,-10.03 123.66,-14.78 40.29,-4.6 80.96,-8.99 121.9,-13.21 10.13,-1.04 20.26,-2.08 30.42,-3.1 65.52,-6.56 131.8,-12.63 198.85,-18.05 49.37,-3.98 99.16,-7.61 149.28,-10.88 21.68,-1.41 43.4,-2.78 65.21,-4.04 21.08,-1.1 41.88,-2.19 62.85,-3.28 9,-1.37 18.07,-2.61 27.2,-3.73 16.04,-1.95 32.26,-3.55 48.74,-4.28 3.62,-0.16 7.26,-0.08 10.89,-0.15 15.12,-0.32 30.31,-0.1 45.53,0.93 19.03,-1.13 38.02,-2.14 56.99,-3.18 11.38,-0.62 22.79,-1.32 34.15,-1.86 27.01,-1.28 53.95,-2.22 80.84,-2.69 1.45,-0.03 2.9,-0.04 4.35,-0.06 -1.69,-28.17 -2.03,-57.44 -0.95,-87.59 -13.35,-5.57 -26.77,-11.08 -40.31,-16.48 -16.25,-6.32 -32.75,-12.74 -49.1,-19.09 -23.26,-9.05 -46.41,-18.06 -69.85,-27.17 -6.54,-2.58 -13.19,-5.21 -19.75,-7.8 -23.58,-9.29 -47.28,-18.64 -71.04,-28.01 -9.89,-3.91 -19.67,-7.76 -29.59,-11.68 -18.59,-7.21 -37.15,-14.31 -55.69,-21.36 -68.67,-26.09 -136.9,-51 -204.58,-74.88 -54.31,-19.17 -108.27,-37.7 -161.74,-55.56 -114.67,-38.29 -227.18,-73.66 -336.6,-106.57 -57.23,-17.21 -113.64,-33.76 -169.05,-49.69 -32.02,-9.15 -63.58,-18.15 -94.86,-26.71 -39.4,-10.77 -78.34,-20.77 -116.88,-28.85 -69.0699,-14.56 -137.2399,-23.11 -202.9599,-21.22 -7.62,0.14 -15.2,0.5 -22.75,0.97 -48.98,3.11 -96.32,13.09 -139.85,29.06 -26.7,9.8 -51.89,21.92 -75.23,35.99 -20.06,12.09 -38.72,25.63 -55.62,40.58 -11.25,9.96 -21.79,20.48 -31.41,31.62 -1.7,2 -3.26,4.08 -4.92,6.1 -11.53,14.12 -21.97,28.81 -30.59,44.18 -3.11,5.55 -6.03,11.17 -8.68,16.88 -6.6,13.88 -11.79,28.1 -16,42.42 -2.96,10.07 -5.5,20.2 -7.38,30.3 -5.46,28.65 -6.4,56.94 -4.4,84.12 1.42,19.39 4.28,38.24 8.26,56.17 10.1,43.13 26.37,81.67 46.17,114.14 19.51,32.73 42.16,59.69 64.1,82.17 17.57,17.73 34.7,32.55 50.79,45.18 24.56,19.26 46.65,33.27 63.8,43.72 28.01,16.64 43.68,24.36 43.93,25.69 0.01,0.03 0.12,0.11 0.11,0.14 -0.21,0.441 -4.37,-1.03 -12.34,-4.34 -7.94,-3.32 -19.6,-8.69 -34.5,-16.54 -29.55,-15.86 -72.91,-41.46 -119.52,-86.05 -23.05,-22.39 -46.94,-49.49 -67.82,-82.91 -21.18,-33.2 -38.8,-72.81 -50.07,-117.55 -10.71,-44.71 -15.35,-95.03 -6.19,-147.08 4.48,-25.95 12.18,-52.24 23.88,-77.63 11.44,-25.52 27.47,-49.59 46.2,-72.08 76.14,-89.99 203.09,-144.88 339.29,-148.65 68.14,-2.46 138.33,5.92 208.73,20.32 70.52,14.36 141.4,34.53 213.83,54.85 289.8,81.83 606.34,180.91 930.7499,306.76 40.3901,15.95 80.5401,31.8 120.4201,47.54 39.83,15.58 79.71,30.67 119.12,46.45 10.47,4.19 20.91,8.44 31.32,12.75 0.84,-12.48 1.84,-25.03 3.21,-37.77 6.65,-58 18.77,-118.83 43.08,-178.66 12.23,-29.81 27.75,-59.45 49.77,-86.09 6.02,-7.16 12.65,-14.03 19.91,-20.41 0.037,-53.22 0.09,-106.09 0.1403,-158.14 0.2797,-156.78 0.5497,-308.01 0.82,-452.09 1.14,-288.12 2.16,-547.5995 3.02,-765.5495 1.28,-217.92 2.8,-394.27 4.49,-516.15 0.4897,-30.45 0.92,-57.51 1.29,-80.98 0.18,-5.9501 0.08,-11.33 0.4897,-17.1 0.24,-5.76 1.6101,-11.15 3.1401,-16.14 3.48,-9.92 8.94,-17.91 14.85,-23.85 12.03,-11.96 24.9099,-15.78 33.0699,-17.1 8.3901,-1.1 12.6701,-0.18 12.6501,0.1297 v 0 c 0,0.6503 -4.27,0.7298 -12.0501,2.6901 -7.6099,2.1499 -19.2399,6.6799 -29.5299,18.18 -5.0601,5.7 -9.58,13.14 -12.2601,22.08 -2.8299,8.9199 -2.19,19.14 -1.9599,31.11 0.3697,23.4699 0.81,50.5299 1.29,80.9799 1.6899,121.8801 3.21,298.23 4.49,516.15 0.8599,217.95 1.89,477.4298 3.0199,765.5498 0.2603,144.08 0.54,295.31 0.8201,452.09 0.053,45.79 0.09,92.17 0.1297,138.86 13.87,-7.14 29.77,-11.6 46.1001,-11.8 16.29,0.19 32.1499,4.63 45.9999,11.75 0.037,-46.67 0.08,-93.04 0.1298,-138.81 0.2797,-156.78 0.5497,-308.01 0.82,-452.09 1.14,-288.12 2.16,-547.5998 3.02,-765.5498 1.28,-217.92 2.8,-394.2699 4.49,-516.15 0.4898,-30.45 0.92,-57.51 1.29,-80.9799 0.2303,-11.97 0.87,-22.1901 -1.96,-31.11 -2.68,-8.94 -7.2,-16.38 -12.26,-22.08 -10.29,-11.5001 -21.92,-16.0301 -29.53,-18.18 -7.79,-1.9601 -12.05,-2.04 -12.04,-2.6901 h -0.01 c -0.023,-0.3097 4.26,-1.23 12.65,-0.1297 8.16,1.32 21.04,5.14 33.07,17.1 5.91,5.94 11.38,13.93 14.84,23.85 1.54,4.99 2.91,10.38 3.16,16.14 0.3997,5.77 0.3,11.1499 0.48,17.1 0.3697,23.47 0.81,50.53 1.29,80.98 1.69,121.88 3.21,298.23 4.49,516.15 0.86,217.95 1.89,477.4295 3.02,765.5495 0.2602,144.08 0.54,295.31 0.82,452.09 0.053,52.03 0.1,104.87 0.15,158.06 7.29,6.41 13.95,13.3 19.99,20.49 22.03,26.64 37.54,56.28 49.77,86.09 24.31,59.83 36.4399,120.66 43.08,178.66 1.3699,12.74 2.37,25.29 3.22,37.77 10.4,-4.31 20.84,-8.56 31.32,-12.75 39.3999,-15.78 79.28,-30.87 119.1099,-46.45 39.8801,-15.74 80.04,-31.59 120.42,-47.54 324.4101,-125.85 640.9501,-224.93 930.7501,-306.76 72.42,-20.32 143.3199,-40.49 213.82,-54.85 70.4,-14.4 140.6,-22.78 208.7,-20.32 136.2,3.77 263.2,58.66 339.3,148.65 18.7999,22.49 34.8,46.56 46.2,72.08 11.7,25.39 19.3999,51.68 23.8999,77.63 9.2001,52.05 4.5,102.37 -6.1999,147.08 -11.2001,44.74 -28.9001,84.35 -50,117.55 -20.9001,33.42 -44.8,60.52 -67.9,82.91 -46.6,44.59 -89.9,70.19 -119.5,86.05 -14.9,7.85 -26.5,13.22 -34.5,16.54 -8,3.31 -12.1,4.78 -12.3,4.34 0,-0.03 0.1,-0.11 0.1,-0.14 0.2002,-1.33 15.9,-9.05 43.8999,-25.69 17.2001,-10.45 39.3,-24.46 63.8001,-43.72 16.1,-12.63 33.2,-27.45 50.7999,-45.18 21.9,-22.48 44.6001,-49.44 64.1001,-82.17 19.8,-32.47 36.0999,-71.01 46.2,-114.14 3.9,-17.93 6.7999,-36.78 8.1999,-56.17 2.0001,-27.18 1.1001,-55.47 -4.4,-84.12 -1.8,-10.1 -4.3999,-20.23 -7.3,-30.3 -4.2999,-14.32 -9.3999,-28.54 -15.9999,-42.42 -2.7,-5.71 -5.6001,-11.33 -8.7,-16.89 -8.7,-15.36 -19.1001,-30.05 -30.6,-44.17 -1.7001,-2.02 -3.2001,-4.1 -4.9001,-6.1 -9.7,-11.14 -20.2,-21.66 -31.5,-31.62 -16.7999,-14.95 -35.5,-28.49 -55.6,-40.58 -23.2999,-14.07 -48.4999,-26.19 -75.1999,-35.99 -43.5,-15.97 -90.9,-25.95 -139.8,-29.06 -7.6001,-0.47 -15.2,-0.83 -22.8,-0.97 -65.7,-1.89 -133.9001,6.66 -203,21.22 -38.5,8.08 -77.4001,18.08 -116.8,28.85 -31.3001,8.56 -62.9001,17.56 -94.89,26.71 -55.4201,15.93 -111.8201,32.48 -169.05,49.69 -109.4301,32.91 -221.94,68.28 -336.61,106.57 -53.46,17.86 -107.43,36.39 -161.73,55.56 -67.68,23.88 -135.9201,48.79 -204.5901,74.88 -18.54,7.05 -37.0899,14.15 -55.6899,21.36 -9.9201,3.92 -19.6901,7.77 -29.58,11.68 -23.76,9.37 -47.4701,18.72 -71.0501,28.01 -6.55,2.59 -13.2,5.22 -19.75,7.8 -23.4399,9.11 -46.59,18.12 -69.84,27.17 -16.35,6.35 -32.85,12.77 -49.11,19.09 -13.5399,5.4 -26.9499,10.91 -40.31,16.48 1.08,30.15 0.7403,59.42 -0.9499,87.59 1.4499,0.02 2.8999,0.03 4.35,0.06 26.8899,0.47 53.8399,1.41 80.8399,2.69 11.37,0.54 22.7801,1.24 34.1501,1.86 18.9799,1.04 37.9699,2.05 57,3.18 15.2199,-1.03 30.4099,-1.25 45.5199,-0.93 3.64,0.07 7.2801,0 10.89,0.15 16.4901,0.73 32.7,2.33 48.7401,4.28 9.1399,1.12 18.21,2.36 27.21,3.73 20.97,1.09 41.7699,2.18 62.8399,3.28 21.8201,1.26 43.5401,2.63 65.22,4.04 50.1201,3.27 99.9,6.9 149.2701,10.88 67.05,5.42 133.3299,11.49 198.8499,18.05 10.17,1.02 20.2901,2.06 30.42,3.1 40.95,4.22 81.6101,8.61 121.9,13.21 41.6,4.75 82.8101,9.69 123.66,14.78 73.7,9.19 146.12,18.89 217.19,28.96 37.6,5.32 74.8,10.73 111.6,16.23 21.4,3.2 42.6001,6.42 63.8001,9.67 1.2,0.18 2.4,0.36 3.6,0.55 29.8,4.64 59.2999,9.28 88.6,14.07 40.2,6.55 79.8,13.66 118.8,21.79 11.1999,-3.39 21.2,-6.75 29.7999,-10.26 15.7001,-5.86 27.6,-10.23 35.8001,-13.02 7.6999,-2.67 11.8,-3.86 12.4,-3.59 0,0.02 0.2002,0 0.2002,0 0.2003,0.441 -3.7,2.54 -11.5,6.21 -7.8,3.68 -19.4,8.95 -34.9,15.72 -5.5,2.63 -11.9,5.19 -18.6,7.74 7.2,1.55 14.4,2.92 21.5,4.57 78,17.93 152.9,41.86 220.7999,75.8 67.9001,33.57 128.1,78.27 175.0001,131.09 46.9,52.7 82.6,112.69 99.7,175.72 8.6,31.36 13.7,63.0798 13.5,94.1598 0.1,31.05 -4.2,61.18 -11.6001,89.49" /><path
           id="path2535"
           style="fill:#603813;fill-opacity:1;fill-rule:nonzero;stroke:none;stroke-width:0.999997"
           d="m 7086.471,9972.9482 c 9.82,-3.72 21.09,-8.79 32.54,-16.01 5.71,-3.6 11.55,-7.61 17.17,-12.3 1.45,-1.11 2.81,-2.36 4.21,-3.58 l 2.11,-1.84 c 0.6,-0.49 2.38,-2.33 3.52,-3.44 2.61,-2.6 5.24,-5.22 7.88,-7.85 0.052,-0.05 0.1,-0.11 0.1598,-0.16 2.96,-3.06 5.95,-6.14 8.96,-9.24 3,3.1 5.99,6.18 8.96,9.24 2.7,2.69 5.38,5.36 8.03,8.01 1.14,1.11 2.93,2.95 3.52,3.44 l 2.11,1.84 c 1.4,1.22 2.77,2.47 4.22,3.58 5.62,4.69 11.45,8.7 17.16,12.3 11.46,7.22 22.72,12.29 32.55,16.01 19.66,7.4 33.45,9.91 33.45,14.08 0.1402,3.56 -14.26,8.4 -38.24,5.29 -11.88,-1.59 -25.96,-5.41 -40.36,-12.63 -7.19,-3.6 -14.52,-7.92 -21.52,-13.22 -1.8,-1.26 -3.5,-2.67 -5.24,-4.09 l -3.63,-2.98 -1.01,-0.87 v 0.02 l -0.01,-0.02 -1.0099,0.87 -3.63,2.98 c -1.7301,1.42 -3.4301,2.83 -5.2301,4.09 -7.0099,5.3 -14.34,9.62 -21.52,13.22 -14.4,7.22 -28.4799,11.04 -40.37,12.63 -23.97,3.11 -38.37,-1.73 -38.23,-5.29 0,-4.17 13.7901,-6.68 33.45,-14.08" /><path
           id="path2537"
           style="fill:#ffffff;fill-opacity:1;fill-rule:nonzero;stroke:none;stroke-width:0.999997"
           d="m 7122.601,9915.5382 c 0,0 -1.02,0.45 -2.88,1.27 -1.78,0.83 -4.53,1.8 -7.86,2.62 -6.71,1.74 -15.92,2.18 -26.18,0.63 -10.28,-1.43 -21.66,-4.56 -33.66,-7.8 -12.43,-3.22 -23.53,-6.23 -32.14,-8.92 -8.07,-2.42 -14.62,-4.38 -20.13,-6.03 -6.02,-1.67 -10.89,-3.02 -14.88,-4.13 -4.75,-1.44 -8.43,-2.55 -11.02,-3.33 -2.74,-0.87 -4.49,-1.22 -4.49,-1.22 0,0 -1.3,1.08 -2.89,3.78 -1.5,2.67 -3.28,7.14 -3.03,13.66 0.24,6.43 2.65,15.02 9.3,23.64 6.39,8.54 17.99,17.13 32.54,21.45 14.62,4.48 30.06,4.54 43.68,3.18 14.06,-1.29 28.64,-4.37 40.82,-9.62 12.27,-5.08 21.56,-12.58 26.4,-18.79 2.48,-3.07 4.1,-5.67 5.01,-7.55 0.91,-1.84 1.41,-2.84 1.41,-2.84" /><path
           id="path2539"
           style="fill:#ffffff;fill-opacity:1;fill-rule:nonzero;stroke:none;stroke-width:0.999997"
           d="m 7232.191,9929.4382 c 0,0 2.13,2.73 6.78,6.53 4.6,3.81 12.01,8.37 20.97,12.07 9.12,3.74 18.76,6.79 28.88,9.11 10.28,2.27 22.38,3.24 34.13,0.4 11.88,-2.77 21.14,-9.23 26.54,-15.89 5.57,-6.77 7.67,-13.8 7.84,-19.21 0.1897,-5.46 -1.36,-9.36 -2.77,-11.77 -1.45,-2.43 -2.68,-3.49 -2.68,-3.49 0,0 -1.7,-0.06 -4.33,0.04 -2.65,0.09 -6.28,0.21 -10.15,0.13 -8.09,-0.08 -15.28,-1.18 -26.15,1.57 -7.13,1.89 -14.92,3.95 -22.83,6.04 -9.37,2.36 -18.98,5.53 -26.79,8.13 -7.96,2.62 -15.08,4.51 -20.51,5.36 -5.4,0.87 -8.93,0.98 -8.93,0.98" /><path
           id="path2541"
           style="fill:#ffffff;fill-opacity:1;fill-rule:nonzero;stroke:none;stroke-width:0.999997"
           d="m 6400.231,9807.5382 c 0,0 -122.14,67.36 -287.49,161.14 -82.67,46.8998 -176.16,100.3898 -270.57,155.3798 -47.09,27.68 -94.52,55.57 -141.0899,82.95 -46.6001,27.5 -91.5401,55.51 -134.9501,78.94 -43.4599,23.67 -83.8,40.99 -121.7,52.58 -37.89,11.8 -73.08,18.4 -104.78,22.11 -31.73,3.8 -60.03,4.45 -84.89,4.08 -24.91,-0.21 -46.35,-2.26 -64.8,-4.06 -36.86,-4.06 -61.33,-9.35 -76.83,-12.07 -15.37,-3.21 -21.82,-3.94 -21.82,-3.94 0,0 5.22,3.61 19.22,11.3 14.16,7.21 37.28,18.7 74.6,29.24 18.68,5.03 40.81,10.36 67.05,13.61 26.19,3.41 56.46,5.55 90.85,3.9 34.36,-1.59 72.92,-6.7 114.73,-18.22 10.46,-2.83 21.13,-5.97 31.91,-9.82 10.86,-3.56 21.8,-7.74 32.83,-12.33 22.08,-9.16 44.56,-20.04 67.3701,-32.38 45.7399,-24.71 90.4299,-53.55 136.17,-82.11 45.5999,-28.98 92.0299,-58.49 138.1399,-87.79 91.97,-58.98 182.19,-117.81 261.6,-170.0398 158.83,-104.44 274.45,-182.47 274.45,-182.47" /><path
           id="path2543"
           style="fill:#ffffff;fill-opacity:1;fill-rule:nonzero;stroke:none;stroke-width:0.999997"
           d="m 5314.601,9456.1882 c 0,0 -6.86,-3.42 -18.36,-9.14 -11.49,-5.69 -27.66,-13.54 -45.71,-22.91 -18.03,-9.4 -37.79,-20.48 -56.26,-32.74 -18.57,-12.3 -35.24,-25.78 -49.61,-39.02 -28.35,-26.49 -43.12,-45.16 -54.58,-56.95 -5.49,-5.93 -9.93,-10.1 -12.93,-12.73 -3.08,-2.63 -4.94,-3.63 -4.94,-3.63 0,0 -1.21,1.6 -2.64,5.52 -1.49,3.95 -3,10.23 -2.91,19.61 0.13,9.33 2.2,21.73 8.67,36.59 6.42,14.82 17.64,31.81 35.42,48.34 17.74,16.43 40.74,30.28 64,39.67 23.35,9.5 47.01,15.28 67.77,19.01 20.79,3.71 38.79,5.57 51.61,6.76 12.82,1.01 20.47,1.62 20.47,1.62" /><path
           id="path2545"
           style="fill:#ffffff;fill-opacity:1;fill-rule:nonzero;stroke:none;stroke-width:0.999997"
           d="m 7929.081,9807.5382 c 0,0 115.63,78.03 274.46,182.47 79.41,52.2298 169.63,111.0598 261.6,170.0398 46.1,29.3 92.54,58.81 138.18,87.79 45.7,28.56 90.4,57.4 136.1,82.11 22.8,12.34 45.3,23.22 67.4,32.38 11,4.59 22,8.77 32.8,12.33 10.8,3.85 21.5,6.99 31.9,9.82 41.8,11.52 80.4,16.63 114.8,18.22 34.4,1.65 64.6,-0.49 90.8,-3.9 26.3,-3.25 48.4,-8.58 67.1,-13.61 37.3,-10.54 60.4,-22.03 74.6,-29.24 14,-7.69 19.2,-11.3 19.2,-11.3 0,0 -6.5,0.73 -21.8,3.94 -15.5,2.72 -40,8.01 -76.9,12.07 -18.4,1.8 -39.8,3.85 -64.8,4.06 -24.8,0.37 -53.1,-0.28 -84.9,-4.08 -31.6,-3.71 -66.8,-10.31 -104.7,-22.11 -37.9,-11.59 -78.3,-28.91 -121.7,-52.58 -43.4,-23.43 -88.4,-51.44 -135,-78.94 -46.5,-27.38 -93.98,-55.27 -141.07,-82.95 -94.41,-54.99 -187.9,-108.48 -270.58,-155.3798 -165.35,-93.78 -287.49,-161.14 -287.49,-161.14" /><path
           id="path2547"
           style="fill:#ffffff;fill-opacity:1;fill-rule:nonzero;stroke:none;stroke-width:0.999997"
           d="m 9014.721,9456.1882 c 0,0 7.6,-0.609 20.5,-1.62 12.8,-1.19 30.8,-3.05 51.6,-6.76 20.7,-3.73 44.4,-9.51 67.8,-19.01 23.2,-9.39 46.2,-23.24 63.9,-39.67 17.8,-16.53 29.1,-33.52 35.5,-48.34 6.4,-14.86 8.5,-27.26 8.6,-36.59 0.1,-9.38 -1.4,-15.66 -2.9,-19.61 -1.4,-3.92 -2.6,-5.52 -2.6,-5.52 0,0 -1.9,1 -5,3.63 -2.9,2.63 -7.4,6.8 -12.9,12.73 -11.4,11.79 -26.2,30.46 -54.6,56.95 -14.3,13.24 -31,26.72 -49.6,39.02 -18.4,12.26 -38.2,23.34 -56.2,32.74 -18.1,9.37 -34.2,17.22 -45.7,22.91 -11.5,5.72 -18.4,9.14 -18.4,9.14" /></g></g></g></svg>
