<?xml version="1.0" encoding="UTF-8" standalone="no"?>
<svg
   xmlns:dc="http://purl.org/dc/elements/1.1/"
   xmlns:cc="http://creativecommons.org/ns#"
   xmlns:rdf="http://www.w3.org/1999/02/22-rdf-syntax-ns#"
   xmlns:svg="http://www.w3.org/2000/svg"
   xmlns="http://www.w3.org/2000/svg"
   viewBox="0 0 417.91653 151.70024"
   height="151.70024"
   width="417.91653"
   id="svg833"
   version="1.1">
  <metadata
     id="metadata839">
    <rdf:RDF>
      <cc:Work
         rdf:about="">
        <dc:format>image/svg+xml</dc:format>
        <dc:type
           rdf:resource="http://purl.org/dc/dcmitype/StillImage" />
        <dc:title></dc:title>
      </cc:Work>
    </rdf:RDF>
  </metadata>
  <defs
     id="defs837">
    <clipPath
       id="clipPath847"
       clipPathUnits="userSpaceOnUse">
      <rect
         y="0"
         x="-2.3595505"
         height="157.5"
         width="422.35956"
         id="rect849"
         style="opacity:0.569132;fill:#333330;stroke:#333333;stroke-width:1.00157" />
    </clipPath>
  </defs>
  <g
     transform="translate(-1,-0.68990496)"
     id="g841">
    <path
       id="path851"
       d="M 112.1099,150.4815 C 103.16483,148.86196 91.743809,145.8789 79,141.83351 69.5,138.81784 69.5,138.81784 58.5,140.15892 25.241228,144.21371 1,140.52643 1,131.41272 c 0,-11.52611 26.65413,-12.22319 70.797694,-1.85155 14.944594,3.51127 26.759982,-3.72368 42.968716,-26.31117 5.87983,-8.193754 5.49749,-8.932775 -1.77407,-3.429137 C 48.339356,148.75487 -5.6752774,86.050348 51.5,28.435616 104.39252,-24.863442 167.79868,5.1859565 124.76512,63.15737 106.35495,87.9581 82.796623,98.709626 69.345306,88.449807 60.195017,81.470541 60.927486,66.435205 70.61497,62.387516 c 9.435221,-3.942287 14.492764,6.733189 6.137042,12.954085 -3.728398,2.775819 -8.102835,1.413976 -8.574155,-2.669292 -0.536948,-4.651833 -2.684258,-2.443391 -2.614275,2.6887 0.460021,33.734431 57.160118,3.848202 68.854088,-36.29251 15.45983,-53.067426 -58.314542,-44.1022131 -89.165831,10.835614 -37.7495746,67.221817 46.356799,92.607407 86.670041,26.15938 17.32148,-28.550888 26.33403,-40.508889 40.56798,-53.826284 16.8838,-15.7966222 31.02466,-17.9777278 25.13279,-3.876518 -4.26963,10.218679 -34.46514,44.154568 -46.73632,52.525647 -2.4768,1.689608 -4.88994,5.115367 -8.26516,11.733409 -13.64228,26.749463 -26.79212,39.700263 -47.868572,47.144033 -9.43937,3.33379 -9.489134,3.61187 -1.002598,5.60258 3.7125,0.87085 14.625,3.70144 24.25,6.29019 15.23932,4.09878 18.81748,4.71564 27.69861,4.77513 10.09614,0.0676 15.25823,-1.35844 10.44597,-2.88579 -11.43142,-3.62819 -9.67422,-14.27822 7.00137,-42.43386 8.25276,-13.934231 8.25276,-13.934231 15.02002,-13.997589 6.76727,-0.06336 6.76727,-0.06336 -1.31869,13.161099 -4.44728,7.27345 -10.08872,16.5073 -12.53653,20.51966 -8.01913,13.14463 -9.52063,19.61205 -4.82674,20.79014 6.89859,1.73144 21.49193,-13.21588 36.69527,-37.58534 3.60284,-5.775 14.2064,-22.808699 23.56346,-37.852664 17.01283,-27.352664 17.01283,-27.352664 23.53214,-27.5 7.65657,-0.173038 8.12552,-2.07954 -4.26833,17.352664 -4.38487,6.875 -10.34266,16.254252 -13.23952,20.842781 -2.89687,4.58853 -6.49634,10.21353 -7.99883,12.5 -3.8234,5.818396 -3.43509,6.49244 1.28408,2.228955 20.68777,-18.690161 33.42205,12.479484 13.59798,33.283724 -22.4583,23.56871 -51.42788,25.09454 -47.18637,2.48531 0.83947,-4.47476 -0.2747,-4.15794 -4.46389,1.26936 -15.95976,20.67664 -37.57898,27.54035 -68.8901,21.87137 z m 90.48609,-10.52797 C 214.63786,134.12416 235,105.76175 235,94.818014 235,81.354726 222.18096,88.701143 205.01851,112 c -17.29908,23.48434 -18.35479,35.66621 -2.42252,27.95353 z M 54.853309,138.35754 c 8.850897,-0.9251 7.857469,-1.64453 -8.603309,-6.23042 -28.364817,-7.90229 -45.44186443,-7.60843 -42.7933215,0.73639 1.624547,5.11849 28.0074435,7.93869 51.3966305,5.49403 z M 164.20069,55.25 C 187.88068,32.126227 202.23463,11 194.26578,11 c -8.82633,0 -24.28595,17.950821 -38.39303,44.579769 -7.57542,14.29961 -6.61436,14.261554 8.32794,-0.329769 z m 86.8248,86.99845 C 226.73198,130.02344 256.3507,86 288.86912,86 c 24.24327,0 6.39398,21.50466 -23.41941,28.2155 -17.02079,3.8313 -22.45299,27.22688 -6.31698,27.20619 13.14754,-0.0169 31.00394,-16.75557 47.9715,-44.968804 8.11763,-13.497802 19.1784,-32.20507 22.14422,-37.452886 11.98083,-21.199294 11.72984,-20.886433 16.67286,-20.783169 2.51828,0.05261 5.58275,-0.227301 6.80993,-0.622021 2.4089,-0.77482 3.52013,-2.813721 -18.75137,34.40519 -32.45962,54.24472 -35.94135,60.60418 -35.96502,65.69098 -0.0526,11.30528 15.82913,-1.01228 32.20791,-24.9798 C 334.69734,106.1634 347,86.035147 347,85.262107 c 0,-0.249351 0.84683,-1.647833 1.88184,-3.107737 2.14167,-3.02086 3.0597,-4.589847 16.11816,-27.54723 9.5,-16.701449 9.5,-16.701449 13,-16.321039 1.925,0.209226 4.98152,0.04855 6.79227,-0.357067 3.29226,-0.737477 3.29226,-0.737477 1.10771,2.916745 C 384.69848,42.8556 380.13149,50.575 375.75112,58 c -4.38037,7.425 -8.31839,13.95 -8.75115,14.5 -0.43276,0.55 -1.66647,2.575 -2.74157,4.5 -1.07509,1.925 -7.72091,13.175 -14.76847,25 -17.61798,29.56093 -20.4735,36.10889 -17.00292,38.98922 4.54611,3.77293 21.30299,-12.24362 32.51299,-31.07655 8.43385,-14.168951 39.99752,-28.422059 48.36514,-21.84009 10.38601,8.169636 -3.92819,20.50224 -30.59194,26.35691 -9.74575,2.13992 -14.7732,8.63486 -14.7732,19.08545 0,17.34417 25.92431,6.51443 44.91965,-18.76494 2.37635,-3.1625 4.71658,-5.75 5.2005,-5.75 5.74328,0 -21.10438,27.71205 -31.62015,32.6382 -13.71876,6.42659 -30.51737,-3.99175 -27.15685,-16.84242 0.7711,-2.94869 -0.50152,-1.89423 -7.32352,6.06808 -15.41518,17.99186 -31.37295,16.70518 -28.33633,-2.28476 0.63913,-3.99696 0.63913,-3.99696 -5.77208,2.87427 -16.38446,17.56004 -32.97298,14.94599 -27.07642,-4.26675 1.52013,-4.95305 1.55396,-4.96872 -7.185,3.32837 -12.85647,12.2064 -23.8368,16.15552 -32.62431,11.73346 z m 27.55432,-36.75596 C 292.41922,97.753051 297.41806,85.132496 285.17493,88.841803 279.06371,90.693321 259,109.49418 259,113.36922 c 0,1.02436 13.05286,-4.22665 19.57981,-7.87673 z m 116.74381,0.76286 c 13.38326,-7.210784 19.9313,-19.838963 9.24777,-17.83472 C 398.41039,89.576439 377,108.7759 377,113.14487 c 0,1.07887 11.69669,-3.31898 18.32362,-6.88952 z M 181.25,76.968838 c -4.39351,-1.765977 -1.86712,-10.642152 3.68343,-12.941264 7.19925,-2.982027 10.95656,2.632114 6.40777,9.574443 -1.09411,1.669823 -6.85131,4.893827 -7.74042,4.334597 -0.0554,-0.03486 -1.11328,-0.470362 -2.35078,-0.967776 z"
       style="fill:#e36412;fill-opacity:1" />
  </g>
</svg>
